<?xml version="1.0" encoding="iso-8859-1"?>
<!-- Generator: Adobe Illustrator 19.0.0, SVG Export Plug-In . SVG Version: 6.00 Build 0)  -->
<svg version="1.1" id="Capa_1" xmlns="http://www.w3.org/2000/svg" xmlns:xlink="http://www.w3.org/1999/xlink" x="0px" y="0px"
	 viewBox="0 0 480.003 480.003" style="enable-background:new 0 0 480.003 480.003;" xml:space="preserve">
<g>
	<g>
		<rect x="240" y="368.001" width="16" height="16"/>
	</g>
</g>
<g>
	<g>
		<rect x="240" y="256.001" width="16" height="16"/>
	</g>
</g>
<g>
	<g>
		<rect x="128" y="272.001" width="16" height="16"/>
	</g>
</g>
<g>
	<g>
		<rect x="128" y="160.001" width="16" height="16"/>
	</g>
</g>
<g>
	<g>
		<path d="M272,32.001c-17.673,0-32,14.327-32,32s14.327,32,32,32c17.673,0,32-14.327,32-32S289.673,32.001,272,32.001z M272,80.001
			c-8.837,0-16-7.163-16-16s7.163-16,16-16s16,7.163,16,16S280.837,80.001,272,80.001z"/>
	</g>
</g>
<g>
	<g>
		<path d="M451.117,304.239c-3.459-3.609-7.175-6.964-11.117-10.038v-174.2c0-4.418-3.582-8-8-8H321.6
			c8.789-14.521,13.745-31.038,14.4-48c0-35.346-28.654-64-64-64c-35.346,0-64,28.654-64,64c0.655,16.962,5.611,33.479,14.4,48H88
			v-16c0-4.418-3.582-8-8-8H64c-17.673,0-32,14.327-32,32v296c0,17.673,14.327,32,32,32h237.128
			c39.699,41.418,105.457,42.812,146.876,3.113C489.422,411.416,490.816,345.657,451.117,304.239z M272,16.001
			c26.499,0.026,47.974,21.501,48,48c0,35.424-34.6,72.192-48,85.112c-13.4-12.92-48-49.688-48-85.112
			C224.026,37.503,245.501,16.028,272,16.001z M224,128.001h8.544c9.986,13.91,21.474,26.678,34.256,38.072
			c2.994,2.561,7.406,2.561,10.4,0c12.783-11.394,24.271-24.161,34.256-38.072H424v56H280c-4.418,0-8,3.582-8,8v96h-48V128.001z
			 M88,128.001h72v64H88V128.001z M48,120.001c0-8.837,7.163-16,16-16h8v280h-8c-5.619-0.009-11.141,1.474-16,4.296V120.001z
			 M160,432.001H64c-8.837,0-16-7.163-16-16s7.163-16,16-16h16c4.418,0,8-3.582,8-8v-136h72V432.001z M208,344.001v88h-32v-184
			c0-4.418-3.582-8-8-8H88v-32h80c4.418,0,8-3.582,8-8v-72h32v168c0,4.418,3.582,8,8,8h64c4.418,0,8-3.582,8-8v-96h136v32h-96
			c-4.418,0-8,3.582-8,8v48.504c-17.836,11.415-31.785,27.978-40,47.496h-64C211.582,336.001,208,339.583,208,344.001z M424,248.001
			v35.832c-27.298-14.322-59.56-15.727-88-3.832v-32H424z M224,432.001v-80h50.904c-6.665,27.402-1.746,56.34,13.6,80H224z
			 M376,464.001c-48.601,0-88-39.399-88-88c0-48.601,39.399-88,88-88c48.601,0,88,39.399,88,88
			C463.943,424.579,424.577,463.944,376,464.001z"/>
	</g>
</g>
<g>
	<g>
		<path d="M448,368.001h-34.6l-4.6-13.496l12.848-12.848l-11.312-11.312l-12.84,12.856l-13.496-4.6v-34.6h-16v29.16l-37.424-12.728
			c-4.185-1.418-8.726,0.825-10.144,5.01c-0.564,1.665-0.564,3.469,0,5.134l12.728,37.424H304v16h34.6l4.592,13.496l-12.848,12.848
			l11.312,11.312l12.848-12.856l13.496,4.6v34.6h16v-29.16l37.424,12.728c4.185,1.418,8.726-0.825,10.144-5.01
			c0.564-1.665,0.564-3.469,0-5.134l-12.728-37.424H448V368.001z M358.664,393.329L340.8,340.801l52.52,17.864l17.88,52.536
			L358.664,393.329z"/>
	</g>
</g>
<g>
	<g>
		<rect x="368" y="368.001" width="16" height="16"/>
	</g>
</g>
<g>
	<g>
		<path d="M56,464.001c-22.08-0.026-39.974-17.92-40-40v-104H0v104c0.04,30.911,25.089,55.96,56,56h24v-16H56z"/>
	</g>
</g>
<g>
	<g>
		<rect y="288.001" width="16" height="16"/>
	</g>
</g>
<g>
	<g>
		<path d="M440,80.001h-40v16h40c8.837,0,16,7.163,16,16v80h16v-80C472,94.328,457.673,80.001,440,80.001z"/>
	</g>
</g>
<g>
	<g>
		<rect x="456" y="208.001" width="16" height="16"/>
	</g>
</g>
<g>
</g>
<g>
</g>
<g>
</g>
<g>
</g>
<g>
</g>
<g>
</g>
<g>
</g>
<g>
</g>
<g>
</g>
<g>
</g>
<g>
</g>
<g>
</g>
<g>
</g>
<g>
</g>
<g>
</g>
</svg>
