<?xml version="1.0" encoding="UTF-8" standalone="no"?><!DOCTYPE svg PUBLIC "-//W3C//DTD SVG 1.1//EN" "http://www.w3.org/Graphics/SVG/1.1/DTD/svg11.dtd">
<svg width="100%" height="100%" viewBox="0 0 2134 2134" version="1.1"
  xmlns="http://www.w3.org/2000/svg"
  xmlns:xlink="http://www.w3.org/1999/xlink" xml:space="preserve"
  xmlns:serif="http://www.serif.com/" style="fill-rule:evenodd;clip-rule:evenodd;stroke-linejoin:round;stroke-miterlimit:2;">
  <path d="M1710.97,27.962l326.983,0c0,0 0,317.384 0,317.384c0,-0 -74.688,-0 -74.688,-0c0,-0 0,-134.258 0,-134.258c0,-11.175 -6.653,-21.277 -16.919,-25.69c-10.266,-4.413 -22.174,-2.29 -30.283,5.399l-312.162,295.991c-9.513,9.02 -11.482,23.437 -4.738,34.678c47.899,79.832 75.478,173.19 75.478,272.88c-0,293.406 -238.703,532.108 -532.113,532.108c-7.861,0 -15.674,-0.207 -23.452,-0.548c-10.6,-0.464 -20.55,5.111 -25.688,14.395c-81.254,146.804 -229.848,251.37 -403.829,271.667c-14.094,1.644 -24.723,13.584 -24.723,27.774l0,173.571c0,15.443 12.52,27.962 27.963,27.962l176.108,-0c0,-0 0,74.688 0,74.688c0,-0 -176.108,-0 -176.108,-0c-15.443,-0 -27.963,12.519 -27.963,27.962l0,161.446c0.001,-0 -74.687,-0 -74.687,-0c-0,-0 -0,-161.442 -0,-161.442c-0,-15.443 -12.519,-27.962 -27.963,-27.962l-167.575,-0c0,-0 0,-74.688 0,-74.688c0,0 167.567,0 167.567,0c15.443,0 27.962,-12.519 27.962,-27.962l0,-173.571c0,-14.19 -10.628,-26.13 -24.722,-27.774c-264.269,-30.829 -470.04,-256.056 -470.04,-528.468c-0,-293.41 238.702,-532.112 532.108,-532.112c7.865,-0 15.683,0.207 23.46,0.548c10.601,0.464 20.55,-5.111 25.688,-14.394c90.77,-163.99 265.565,-275.309 465.898,-275.309c148.915,0 283.712,61.531 380.385,160.456c10.678,10.928 28.151,11.261 39.238,0.748l287.425,-272.538c8.306,-7.875 10.973,-20.016 6.734,-30.647c-4.239,-10.631 -14.528,-17.606 -25.974,-17.606l-119.371,0l0.001,-74.688Zm-1083.47,1512.96c154.581,-0 291.491,-77.067 374.324,-194.811c5.156,-7.329 6.487,-16.685 3.58,-25.161c-2.907,-8.476 -9.7,-15.045 -18.269,-17.667c-217.828,-66.649 -376.706,-269.576 -376.706,-508.936c-0,-45.709 5.792,-90.085 16.681,-132.442c2.23,-8.673 0.171,-17.889 -5.538,-24.788c-5.708,-6.9 -14.376,-10.648 -23.313,-10.081c-238.644,15.139 -428.18,214.058 -428.18,456.461c-0,252.227 205.198,457.425 457.421,457.425Zm515.431,-324.988c-2.23,8.673 -0.171,17.889 5.537,24.789c5.709,6.899 14.377,10.647 23.314,10.08c238.643,-15.134 428.179,-214.057 428.188,-456.459c0,-0.001 0,-0.001 0,-0.001c0,-252.227 -205.198,-457.425 -457.425,-457.425c-154.576,-0 -291.49,77.071 -374.323,194.81c-5.156,7.329 -6.488,16.685 -3.581,25.161c2.907,8.476 9.7,15.045 18.268,17.667c217.825,66.653 376.703,269.581 376.703,508.941c0,45.709 -5.792,90.081 -16.681,132.437Zm-112.069,22.016c14.399,3.626 29.121,-4.634 33.53,-18.812c13.333,-42.875 20.533,-88.43 20.533,-135.637c-0,-213.709 -147.326,-393.636 -345.742,-443.607c-14.398,-3.626 -29.119,4.632 -33.529,18.809c-13.338,42.876 -20.533,88.436 -20.533,135.644c-0,213.709 147.326,393.632 345.741,443.603Z" style="fill-rule:nonzero;"/>
</svg>