<?xml version="1.0" encoding="UTF-8" standalone="no"?>
<!DOCTYPE svg PUBLIC "-//W3C//DTD SVG 1.1//EN" "http://www.w3.org/Graphics/SVG/1.1/DTD/svg11.dtd">
<svg width="100%" height="100%" viewBox="0 0 512 512" version="1.1"
  xmlns="http://www.w3.org/2000/svg"
  xmlns:xlink="http://www.w3.org/1999/xlink" xml:space="preserve"
  xmlns:serif="http://www.serif.com/" style="fill-rule:evenodd;clip-rule:evenodd;stroke-linejoin:round;stroke-miterlimit:2;">
  <g transform="matrix(0.1,0,0,-0.1,0,512)">
    <path d="M4420,4941C4252,4907 4105,4697 3975,4307C3846,3918 3786,3548 3823,3369C3873,3131 4039,2946 4270,2873L4360,2845L4358,2782L4355,2549L4185,2505C3926,2439 3759,2376 3527,2257C3331,2157 3125,2021 2973,1889L2930,1853L2810,1895L2810,3557L2858,3575C2926,3602 3012,3690 3036,3760C3086,3908 3033,4064 2906,4144C2878,4162 2564,4259 2209,4433C1743,4662 1554,4750 1529,4750C1504,4750 1309,4659 825,4421C98,4064 84,4116 33,4012C9,3964 5,3942 5,3875C5,3809 10,3785 32,3738C65,3667 124,3609 195,3579L250,3555L250,2133L158,2120C74,2108 62,2103 31,2073C1,2043 -2,2035 3,1999C14,1913 54,1900 230,1929C437,1962 613,1979 847,1989C1445,2014 2050,1932 2615,1750L2772,1699L2718,1642C2645,1565 2556,1451 2495,1358C2459,1302 2441,1282 2430,1287C2422,1290 2339,1319 2245,1351C1637,1557 1062,1623 419,1540C181,1510 159,1504 128,1470C95,1434 92,1398 120,1353C145,1311 177,1304 275,1319C912,1415 1350,1389 1935,1235C2062,1202 2327,1117 2338,1106C2341,1103 2325,1061 2302,1013C2255,911 2198,750 2180,668C2173,636 2166,610 2164,610C2163,610 2097,628 2018,649C1628,756 1292,800 870,801C610,801 575,792 340,759C154,733 155,733 124,697C71,634 116,540 198,540C218,540 275,547 325,555C604,601 960,615 1261,585C1523,560 1842,498 2062,430L2126,410L2119,353C2115,321 2111,243 2111,179C2110,82 2113,59 2128,41C2165,-4 2255,-2 2286,45C2298,63 2304,110 2311,212C2321,377 2339,495 2377,630C2625,1525 3485,2217 4545,2374C4673,2393 4865,2410 4957,2410C5041,2410 5076,2423 5096,2461C5114,2496 5114,2524 5096,2559C5076,2597 5041,2610 4961,2610C4888,2610 4659,2594 4598,2584L4560,2578L4560,2848L4598,2855C4660,2866 4761,2910 4832,2957C4992,3062 5101,3251 5117,3449C5132,3652 5025,4149 4896,4466C4759,4807 4590,4975 4420,4941ZM4545,4687C4666,4553 4788,4239 4870,3850C4912,3653 4927,3506 4913,3423C4897,3332 4850,3243 4784,3176C4727,3119 4625,3060 4583,3060L4560,3060L4560,3482L4531,3511C4491,3551 4442,3551 4398,3511L4365,3482L4362,3221C4358,2927 4364,3043 4280,3081C4161,3135 4068,3243 4028,3373C4010,3432 4008,3458 4013,3544C4035,3915 4227,4513 4378,4681C4452,4763 4476,4764 4545,4687ZM2166,4291C2512,4121 2807,3971 2821,3957C2896,3884 2839,3750 2734,3750C2713,3750 2596,3802 2404,3896C2239,3977 1982,4103 1832,4176C1663,4259 1546,4310 1528,4310C1508,4310 1298,4212 936,4033C424,3781 370,3756 323,3756C277,3755 266,3759 239,3786C198,3828 190,3890 220,3938C237,3966 300,4000 673,4183C910,4300 1197,4381 1310,4437C1423,4493 1520,4539 1526,4539C1532,4540 1820,4461 2166,4291ZM2070,3837L2605,3574L2608,2772C2609,2208 2607,1970 2599,1970C2594,1970 2516,1990 2427,2014C2338,2038 2223,2066 2173,2076L2080,2094L2080,2331C2080,2588 2069,2563 2016,2667C1929,2840 1754,2955 1560,2967C1313,2982 1099,2837 1003,2588C990,2555 985,2595 981,2420L975,2195L890,2193C781,2190 502,2170 473,2163L450,2158L450,2868C450,3571 450,3579 470,3585C481,3589 721,3705 1003,3845C1284,3984 1520,4099 1525,4099C1531,4099 1776,3981 2070,3837ZM1663,2742C1733,2711 1812,2631 1846,2557C1875,2495 1875,2594 1878,2362L1882,2128L1853,2134C1749,2156 1380,2190 1253,2190L1179,2190L1182,2403C1185,2594 1187,2519 1206,2561C1248,2651 1331,2724 1426,2754C1492,2775 1601,2770 1663,2742Z" style="fill-rule:nonzero;"/>
    <g transform="matrix(0.85079,0,0,0.85079,214.347,559.753)">
      <path d="M1420,3843C1355,3819 1268,3730 1245,3661C1211,3557 1236,3441 1311,3356C1390,3266 1549,3237 1657,3293C1767,3350 1823,3439 1824,3560C1825,3685 1766,3779 1655,3832C1585,3865 1495,3869 1420,3843ZM1581,3650C1591,3644 1607,3625 1616,3608C1659,3524 1573,3434 1487,3475C1424,3505 1410,3582 1459,3631C1490,3662 1542,3670 1581,3650Z" style="fill-rule:nonzero;"/>
    </g>
    <g transform="matrix(0.902862,0,0,0.902862,161.409,161.573)">
      <path d="M4805,1899C4189,1842 3634,1557 3284,1119C3126,921 3000,653 2955,418C2928,279 2918,104 2934,65C2957,12 3021,-9 3074,20C3111,39 3118,65 3130,202C3158,551 3293,845 3547,1110C3894,1473 4363,1675 4925,1706C5049,1713 5056,1714 5082,1741C5127,1786 5116,1860 5060,1893C5029,1912 4959,1913 4805,1899Z" style="fill-rule:nonzero;"/>
    </g>
    <g transform="matrix(0.853347,0,0,0.853347,411.277,156.424)">
      <path d="M4860,1300C4361,1249 3935,974 3740,577C3670,433 3640,322 3634,180C3629,79 3631,62 3647,43C3685,-4 3775,-3 3806,45C3816,60 3825,109 3831,176C3860,507 4073,798 4408,965C4576,1048 4742,1091 4955,1106C5046,1112 5057,1115 5082,1141C5120,1179 5120,1228 5082,1271C5057,1299 5046,1303 4999,1306C4969,1307 4907,1304 4860,1300Z" style="fill-rule:nonzero;"/>
    </g>
  </g>
</svg>
