<svg width="100%" height="100%" viewBox="0 0 2134 2134" version="1.1" class="ionicon"
  xmlns="http://www.w3.org/2000/svg"
  xmlns:xlink="http://www.w3.org/1999/xlink" xml:space="preserve"
  xmlns:serif="http://www.serif.com/">
  <circle stroke-miterlimit="10" class="ionicon-fill-none ionicon-stroke-width" cx="464.472" cy="1426.06" r="69.601"/>
  <circle stroke-miterlimit="10" class="ionicon-fill-none ionicon-stroke-width" cx="1487.33" cy="1425.19" r="69.601"/>
  <path stroke-miterlimit="10" class="ionicon-fill-none ionicon-stroke-width" d="M703.657,1518.78l542.269,0l-0,-69.453l-434.083,0l161.613,-158.941c176.304,-182.982 244.422,-268.463 244.422,-416.719c-0,-154.934 -93.495,-259.114 -263.121,-259.114c-97.502,-0 -188.325,52.09 -240.415,89.488l34.726,61.439c50.755,-40.069 124.215,-81.474 207.024,-81.474c129.557,0 186.99,65.446 186.99,192.332c-0,136.235 -78.803,223.052 -205.689,353.944l-233.736,244.422l-0,44.076Z" style="fill-rule:nonzero;fill:black"/>
  <path stroke-miterlimit="10" class="ionicon-fill-none ionicon-stroke-width" d="M1855.92,1515.13c146.711,-0 238.406,-77.217 238.406,-194.972c0,-99.417 -60.808,-145.747 -143.816,-162.156c73.356,-25.095 120.651,-74.321 120.651,-153.468c0,-104.243 -79.147,-163.121 -198.833,-163.121c-61.773,0 -136.094,20.27 -176.633,45.365l12.547,76.252c39.574,-19.304 88.8,-39.574 138.991,-39.574c75.286,0 121.616,26.061 121.616,98.452c0,65.634 -51.156,104.242 -131.268,105.208l-56.948,0.965l0,76.251l63.704,0.966c89.765,0.965 145.747,34.747 145.747,110.999c-0,76.251 -53.087,117.755 -150.573,117.755c-49.226,0 -113.895,-17.373 -148.642,-39.573l-18.339,74.321c36.678,25.095 105.208,46.33 183.39,46.33Z" style="fill-rule:nonzero;;fill:black"/>
  <path stroke-miterlimit="10" class="ionicon-fill-none ionicon-stroke-width" d="M154.828,1509.34l100.382,-0l-0,-664.065l-53.087,0l-163.12,73.356l-0,58.878l115.825,-25.095l0,556.926Z" style="fill-rule:nonzero;fill:black"/>
</svg>