<?xml version="1.0" encoding="UTF-8" standalone="no"?>
<!DOCTYPE svg PUBLIC "-//W3C//DTD SVG 1.1//EN" "http://www.w3.org/Graphics/SVG/1.1/DTD/svg11.dtd">
<svg width="100%" height="100%" viewBox="0 0 23 11" version="1.1"
  xmlns="http://www.w3.org/2000/svg"
  xmlns:xlink="http://www.w3.org/1999/xlink" xml:space="preserve" style="fill-rule:evenodd;clip-rule:evenodd;stroke-linejoin:round;stroke-miterlimit:1.41421;">
  <path id="path-1" d="M11.259,4.777L7.51,8.669L7.51,10.526L13.971,10.526L13.971,8.944L9.502,8.944L12.485,5.977C12.922,5.549 13.279,5.098 13.556,4.622C13.833,4.151 13.971,3.589 13.971,2.935C13.971,2.437 13.89,2.006 13.73,1.634C13.563,1.265 13.346,0.961 13.057,0.721C12.779,0.485 12.449,0.304 12.072,0.181C11.695,0.061 11.287,0 10.85,0C10.416,0 10.011,0.064 9.642,0.19C9.266,0.316 8.941,0.504 8.656,0.743C8.376,0.989 8.145,1.294 7.968,1.655C7.792,2.021 7.684,2.446 7.648,2.922L9.364,3.069C9.422,2.642 9.578,2.299 9.844,2.048C10.107,1.791 10.442,1.666 10.85,1.666C11.042,1.666 11.221,1.699 11.39,1.759C11.557,1.823 11.706,1.915 11.832,2.032C11.961,2.147 12.063,2.289 12.136,2.456C12.217,2.619 12.253,2.81 12.253,3.025C12.253,3.2 12.221,3.37 12.158,3.527C12.095,3.69 12.015,3.84 11.921,3.991C11.825,4.132 11.718,4.274 11.601,4.406C11.481,4.537 11.367,4.66 11.259,4.777" style="fill:rgb(1,0,2);"/>
  <path id="path-11" d="M20.083,6.194L20.083,7.304L20.358,7.304C20.535,7.304 20.709,7.316 20.885,7.342C21.062,7.369 21.221,7.422 21.364,7.501C21.505,7.58 21.622,7.691 21.716,7.837C21.811,7.987 21.854,8.177 21.854,8.406C21.854,8.578 21.823,8.733 21.763,8.874C21.703,9.012 21.619,9.132 21.516,9.231C21.411,9.326 21.293,9.405 21.154,9.459C21.016,9.513 20.874,9.545 20.721,9.545C20.412,9.545 20.17,9.459 19.995,9.299C19.815,9.132 19.692,8.903 19.622,8.602L18.4,8.948C18.478,9.249 18.589,9.507 18.731,9.721C18.885,9.937 19.051,10.113 19.256,10.248C19.457,10.385 19.681,10.488 19.927,10.552C20.178,10.614 20.442,10.646 20.721,10.646C21.02,10.646 21.307,10.596 21.586,10.504C21.862,10.412 22.104,10.277 22.314,10.095C22.524,9.914 22.691,9.694 22.814,9.428C22.94,9.164 23,8.856 23,8.508C23,8.057 22.89,7.665 22.668,7.343C22.446,7.014 22.113,6.815 21.685,6.748C22.048,6.632 22.33,6.429 22.533,6.128C22.737,5.824 22.839,5.479 22.839,5.089C22.839,4.771 22.782,4.489 22.662,4.247C22.543,4.004 22.39,3.804 22.192,3.643C21.99,3.485 21.767,3.365 21.503,3.281C21.243,3.198 20.963,3.158 20.674,3.158C20.425,3.158 20.184,3.189 19.958,3.251C19.73,3.314 19.52,3.404 19.329,3.533C19.137,3.659 18.972,3.819 18.832,4.015C18.694,4.215 18.586,4.446 18.508,4.713L19.721,5.061C19.802,4.809 19.934,4.612 20.115,4.472C20.29,4.33 20.501,4.26 20.724,4.26C21.011,4.26 21.242,4.347 21.419,4.526C21.595,4.703 21.685,4.931 21.685,5.211C21.685,5.432 21.651,5.603 21.574,5.734C21.496,5.863 21.399,5.964 21.273,6.027C21.151,6.098 21.013,6.142 20.859,6.162C20.703,6.186 20.544,6.194 20.379,6.194" style="fill:rgb(1,0,2);"/>
  <path id="path-12" d="M20.379,6.194L1.938,4.692L0.669,5.951L0,5.101L2.042,3.279L3.081,3.279L3.081,10.523L1.938,10.523L1.938,4.692" style="fill:rgb(1,0,2);"/>
  <g transform="matrix(1,0,0,1,0,-1)">
    <circle cx="5.381" cy="10.43" r="0.73"/>
  </g>
  <g transform="matrix(1,0,0,1,10.9854,-1)">
    <circle cx="5.381" cy="10.43" r="0.73"/>
  </g>
</svg>
