<?xml version="1.0" encoding="iso-8859-1"?>
<!-- Generator: Adobe Illustrator 18.1.1, SVG Export Plug-In . SVG Version: 6.00 Build 0)  -->
<svg version="1.1" id="Capa_1"
  xmlns="http://www.w3.org/2000/svg"
  xmlns:xlink="http://www.w3.org/1999/xlink" x="0px" y="0px" viewBox="0 0 268 268" style="enable-background:new 0 0 268 268;" xml:space="preserve">
  <g>
    <path id="path25689" d="M142.5,0c-22.032,0-40,17.968-40,40s17.968,40,40,40s40-17.968,40-40S164.532,0,142.5,0z M142.5,10
		c16.628,0,30,13.372,30,30s-13.372,30-30,30s-30-13.372-30-30S125.872,10,142.5,10z M142.5,20c-11.016,0-20,8.984-20,20
		c-0.048,3.381,5.048,3.381,5,0c0-8.314,6.686-15,15-15C145.881,25.048,145.881,19.952,142.5,20z M70.936,44.936
		c-17.614,0-32,14.386-32,32c0,17.614,14.386,32,32,32s32-14.386,32-32C102.936,59.322,88.549,44.936,70.936,44.936z M70.936,54.936
		c12.209,0,22,9.791,22,22s-9.791,22-22,22s-22-9.791-22-22S58.726,54.936,70.936,54.936z M213.064,65.936c-6.016,0-11,4.984-11,11
		s4.984,11,11,11s11-4.984,11-11S219.08,65.936,213.064,65.936z M42,119.5c-15.957,0-29,13.043-29,29s13.043,29,29,29
		s29-13.043,29-29S57.957,119.5,42,119.5z M42,129.5c10.553,0,19,8.447,19,19s-8.447,19-19,19s-19-8.447-19-19
		S31.447,129.5,42,129.5z M242,135.5c-7.12,0-13,5.88-13,13s5.88,13,13,13s13-5.88,13-13S249.12,135.5,242,135.5z M242,145.5
		c1.716,0,3,1.284,3,3s-1.284,3-3,3s-3-1.284-3-3S240.284,145.5,242,145.5z M70.936,194.062c-13.748,0-25,11.252-25,25
		s11.252,25,25,25s25-11.252,25-25S84.683,194.062,70.936,194.062z M213.064,203.062c-8.777,0-16,7.223-16,16s7.223,16,16,16
		c8.777,0,16-7.223,16-16S221.842,203.062,213.064,203.062z M70.936,204.062c8.343,0,15,6.657,15,15s-6.657,15-15,15
		s-15-6.657-15-15S62.592,204.062,70.936,204.062z M213.064,213.062c3.373,0,6,2.627,6,6s-2.627,6-6,6s-6-2.627-6-6
		S209.692,213.062,213.064,213.062z M142.5,228c-10.986,0-20,9.014-20,20c0,10.986,9.014,20,20,20s20-9.014,20-20
		C162.5,237.014,153.486,228,142.5,228z M142.5,238c5.582,0,10,4.418,10,10s-4.418,10-10,10s-10-4.418-10-10S136.918,238,142.5,238z
		"/>
  </g>
  <g>
  </g>
  <g>
  </g>
  <g>
  </g>
  <g>
  </g>
  <g>
  </g>
  <g>
  </g>
  <g>
  </g>
  <g>
  </g>
  <g>
  </g>
  <g>
  </g>
  <g>
  </g>
  <g>
  </g>
  <g>
  </g>
  <g>
  </g>
  <g>
  </g>
</svg>
