<?xml version="1.0" encoding="UTF-8" standalone="no"?>
<!DOCTYPE svg PUBLIC "-//W3C//DTD SVG 1.1//EN" "http://www.w3.org/Graphics/SVG/1.1/DTD/svg11.dtd">
<svg width="100%" height="100%" viewBox="0 0 1024 1024" version="1.1" xmlns="http://www.w3.org/2000/svg" xmlns:xlink="http://www.w3.org/1999/xlink" xml:space="preserve" style="fill-rule:evenodd;clip-rule:evenodd;stroke-linejoin:round;stroke-miterlimit:1.41421;">
    <g>
        <g transform="matrix(0.990776,0,0,1.00267,8.80532,-0.520273)">
            <rect x="-8.887" y="0.519" width="1033.6" height="1021.35" style="fill:rgb(254,255,254);"/>
        </g>
        <g transform="matrix(0.758399,0,0,0.758399,164.668,85.7492)">
            <g transform="matrix(4.16667,0,0,4.16667,-1079.46,0)">
                <path d="M335.364,257.676C327.668,265.226 317.975,269 306.273,269C295.24,269 285.707,265.145 277.683,257.433C269.658,249.722 265.643,240.407 265.643,229.478C265.643,218.558 269.658,209.236 277.683,201.525C285.707,193.813 295.24,189.957 306.273,189.957C317.635,189.957 327.25,193.813 335.116,201.525C342.965,209.236 346.901,218.558 346.901,229.478C346.901,240.73 343.053,250.126 335.364,257.676Z" style="fill:rgb(17,10,20);fill-rule:nonzero;"/>
            </g>
            <g transform="matrix(4.16667,0,0,4.16667,-1079.46,0)">
                <path d="M306.321,251.201C294.393,251.201 284.689,241.496 284.689,229.568C284.689,217.638 294.393,207.933 306.321,207.933C318.249,207.933 327.953,217.638 327.953,229.568C327.953,241.496 318.249,251.201 306.321,251.201Z" style="fill:rgb(146,168,60);fill-rule:nonzero;"/>
            </g>
            <g transform="matrix(4.16667,0,0,4.16667,-1079.46,0)">
                <path d="M306.321,205.433C293.014,205.433 282.189,216.26 282.189,229.568C282.189,242.875 293.014,253.701 306.321,253.701C319.627,253.701 330.453,242.875 330.453,229.568C330.453,216.26 319.627,205.433 306.321,205.433ZM306.321,210.433C316.89,210.433 325.453,219.001 325.453,229.568C325.453,240.134 316.89,248.701 306.321,248.701C299.715,248.701 293.893,245.355 290.455,240.265C288.393,237.211 287.189,233.53 287.189,229.568C287.189,219.001 295.751,210.433 306.321,210.433Z" style="fill:white;fill-rule:nonzero;"/>
            </g>
            <g transform="matrix(4.16667,0,0,4.16667,-1079.46,0)">
                <path d="M353.147,121.154L350.405,118.241C353.36,115.459 355.21,114.239 355.288,114.189L357.477,117.537L356.382,115.863L357.48,117.534C357.464,117.546 355.812,118.645 353.147,121.154Z" style="fill:rgb(17,10,20);fill-rule:nonzero;"/>
            </g>
            <g transform="matrix(4.16667,0,0,4.16667,-1079.46,0)">
                <path d="M355.861,111.451L358.138,114.934L360.199,118.07L360.192,118.075L360.663,118.796L357.353,120.96L356.986,120.4L356.942,120.436L356.86,120.504L356.776,120.573L356.691,120.645L356.603,120.718L356.514,120.793L356.423,120.871L356.331,120.95L356.236,121.031L356.14,121.114L356.042,121.198L355.943,121.285L355.842,121.374L355.739,121.465L355.634,121.557L355.528,121.652L355.421,121.749L355.311,121.847L355.2,121.948L355.088,122.051L354.974,122.155L354.859,122.262L354.741,122.371L354.623,122.481L353.061,123.948L347.609,118.156L347.609,118.153L349.191,116.668L349.331,116.537L349.47,116.408L349.607,116.282L349.742,116.158L349.876,116.036L350.008,115.916L350.138,115.799L350.267,115.684L350.393,115.571L350.518,115.46L350.641,115.352L350.763,115.246L350.882,115.142L351,115.04L351.116,114.94L351.23,114.843L351.342,114.747L351.452,114.654L351.56,114.563L351.667,114.474L351.771,114.387L351.874,114.302L351.974,114.22L352.073,114.139L352.169,114.061L352.264,113.984L352.357,113.91L352.447,113.838L352.535,113.768L352.622,113.699L352.706,113.633L352.788,113.569L352.868,113.507L352.946,113.447L353.022,113.389L353.095,113.333L353.168,113.278L353.303,113.176L353.43,113.081L353.548,112.994L353.657,112.915L353.757,112.843L353.848,112.779L353.928,112.722L354,112.672L354.062,112.63L354.114,112.595L354.158,112.565L355.853,111.45L355.861,111.451ZM354.746,117.065L354.66,117.134L354.572,117.206L354.482,117.279L354.39,117.355L354.296,117.433L354.2,117.512L354.102,117.594L354.002,117.678L353.901,117.764L353.797,117.852L353.692,117.942L353.584,118.035L353.475,118.129L353.364,118.226L353.251,118.325L353.223,118.349L353.254,118.382L353.338,118.309L353.446,118.215L353.552,118.123L353.656,118.032L353.758,117.944L353.859,117.858L353.959,117.774L354.056,117.692L354.151,117.612L354.245,117.533L354.337,117.457L354.428,117.382L354.516,117.31L354.602,117.239L354.687,117.17L354.77,117.103L354.809,117.072L354.784,117.034L354.746,117.065Z" style="fill:rgb(17,10,20);"/>
            </g>
            <g transform="matrix(4.16667,0,0,4.16667,-1079.46,0)">
                <path d="M317.509,182.229L313.712,180.97C314.917,177.335 316.21,173.749 317.554,170.312L321.279,171.768C319.961,175.14 318.693,178.66 317.509,182.229Z" style="fill:rgb(17,10,20);fill-rule:nonzero;"/>
            </g>
            <g transform="matrix(4.16667,0,0,4.16667,-1079.46,0)">
                <path d="M323.84,170.645L322.999,172.801L322.877,173.116L322.755,173.431L322.634,173.747L322.513,174.063L322.393,174.381L322.272,174.699L322.152,175.018L322.032,175.338L321.913,175.658L321.794,175.98L321.675,176.301L321.557,176.624L321.439,176.947L321.322,177.271L321.204,177.595L321.088,177.92L320.971,178.246L320.855,178.572L320.74,178.898L320.624,179.225L320.51,179.553L320.395,179.881L320.281,180.21L320.168,180.538L320.055,180.868L319.942,181.198L319.83,181.528L319.718,181.858L319.607,182.189L319.497,182.52L318.762,184.728L311.212,182.225L311.211,182.223L311.949,180.004L312.064,179.661L312.179,179.318L312.295,178.975L312.411,178.633L312.528,178.291L312.645,177.949L312.762,177.608L312.881,177.267L312.999,176.927L313.118,176.587L313.238,176.248L313.358,175.909L313.478,175.571L313.599,175.233L313.72,174.896L313.842,174.559L313.964,174.223L314.086,173.888L314.209,173.553L314.333,173.219L314.456,172.886L314.58,172.553L314.705,172.221L314.829,171.89L314.954,171.559L315.08,171.229L315.206,170.9L315.332,170.572L315.458,170.244L315.585,169.918L316.43,167.751L316.432,167.75L323.84,170.645ZM318.653,172.962L318.53,173.286L318.408,173.611L318.286,173.937L318.164,174.264L318.043,174.591L317.922,174.919L317.801,175.248L317.681,175.577L317.561,175.907L317.442,176.238L317.322,176.569L317.204,176.9L317.086,177.232L316.968,177.565L316.85,177.898L316.733,178.232L316.617,178.566L316.501,178.901L316.385,179.236L316.27,179.572L316.22,179.718L316.263,179.732L316.312,179.587L316.427,179.251L316.543,178.916L316.659,178.582L316.775,178.248L316.892,177.914L317.01,177.581L317.127,177.249L317.245,176.917L317.364,176.585L317.483,176.254L317.602,175.924L317.722,175.594L317.842,175.265L317.963,174.936L318.084,174.608L318.205,174.281L318.327,173.954L318.449,173.628L318.571,173.303L318.694,172.979L318.726,172.894L318.685,172.878L318.653,172.962Z" style="fill:rgb(17,10,20);"/>
            </g>
            <g transform="matrix(4.16667,0,0,4.16667,-1079.46,0)">
                <path d="M326.621,159.548L322.988,157.872C324.609,154.36 326.324,150.944 328.086,147.72L331.596,149.639C329.877,152.783 328.203,156.117 326.621,159.548Z" style="fill:rgb(17,10,20);fill-rule:nonzero;"/>
            </g>
            <g transform="matrix(4.16667,0,0,4.16667,-1079.46,0)">
                <path d="M334.278,148.851L333.173,150.879L333.014,151.172L332.856,151.465L332.697,151.76L332.54,152.056L332.382,152.352L332.225,152.65L332.068,152.949L331.911,153.249L331.755,153.549L331.599,153.851L331.444,154.154L331.288,154.457L331.133,154.762L330.979,155.067L330.825,155.373L330.671,155.68L330.518,155.988L330.365,156.297L330.212,156.606L330.06,156.917L329.908,157.228L329.757,157.54L329.606,157.852L329.456,158.165L329.306,158.479L329.157,158.794L329.008,159.109L328.859,159.425L328.711,159.741L328.564,160.058L327.587,162.172L320.364,158.839L320.362,158.836L321.346,156.711L321.501,156.378L321.656,156.047L321.811,155.716L321.967,155.386L322.124,155.057L322.281,154.728L322.439,154.399L322.597,154.072L322.755,153.745L322.914,153.419L323.074,153.094L323.234,152.769L323.394,152.446L323.555,152.123L323.717,151.8L323.878,151.479L324.041,151.159L324.203,150.839L324.366,150.52L324.529,150.203L324.693,149.886L324.857,149.57L325.022,149.255L325.187,148.941L325.352,148.628L325.518,148.316L325.684,148.005L325.85,147.695L326.016,147.386L326.183,147.078L327.296,145.037L327.299,145.036L334.278,148.851ZM328.848,150.478L328.687,150.784L328.526,151.09L328.366,151.397L328.205,151.706L328.046,152.015L327.886,152.325L327.727,152.637L327.568,152.949L327.41,153.262L327.252,153.576L327.094,153.89L326.937,154.206L326.78,154.522L326.624,154.839L326.468,155.157L326.312,155.476L326.157,155.795L326.003,156.116L325.849,156.436L325.695,156.758L325.623,156.909L325.664,156.928L325.735,156.779L325.888,156.457L326.042,156.137L326.196,155.817L326.351,155.498L326.506,155.179L326.662,154.861L326.818,154.544L326.975,154.228L327.132,153.913L327.29,153.598L327.447,153.285L327.606,152.972L327.765,152.66L327.924,152.349L328.083,152.039L328.243,151.729L328.403,151.421L328.564,151.113L328.725,150.807L328.886,150.501L328.923,150.432L328.884,150.411L328.848,150.478Z" style="fill:rgb(17,10,20);"/>
            </g>
            <g transform="matrix(4.16667,0,0,4.16667,-1079.46,0)">
                <path d="M338.278,138.146L334.932,135.952C337.092,132.658 339.349,129.549 341.639,126.711L344.752,129.222C342.544,131.959 340.366,134.961 338.278,138.146Z" style="fill:rgb(17,10,20);fill-rule:nonzero;"/>
            </g>
            <g transform="matrix(4.16667,0,0,4.16667,-1079.46,0)">
                <path d="M347.532,128.923L346.19,130.59L346.089,130.716L345.987,130.843L345.886,130.97L345.785,131.097L345.684,131.225L345.582,131.353L345.481,131.482L345.38,131.611L345.279,131.74L345.178,131.87L345.077,132L344.976,132.131L344.875,132.261L344.775,132.393L344.674,132.524L344.573,132.656L344.473,132.788L344.372,132.921L344.272,133.054L344.171,133.187L344.071,133.321L343.971,133.455L343.87,133.59L343.77,133.725L343.67,133.86L343.57,133.995L343.47,134.131L343.37,134.267L343.27,134.403L343.171,134.54L343.071,134.677L342.971,134.815L342.872,134.953L342.772,135.091L342.673,135.229L342.574,135.368L342.475,135.507L342.376,135.647L342.277,135.786L342.178,135.926L342.079,136.067L341.98,136.207L341.882,136.348L341.783,136.49L341.685,136.631L341.586,136.773L341.488,136.915L341.39,137.058L341.292,137.201L341.194,137.344L341.097,137.487L340.999,137.631L340.901,137.775L340.804,137.919L340.707,138.064L340.609,138.209L340.512,138.354L340.415,138.499L340.318,138.645L340.222,138.791L340.125,138.937L340.028,139.084L338.846,140.884L332.193,136.521L332.193,136.519L333.381,134.711L333.484,134.554L333.587,134.398L333.69,134.242L333.794,134.087L333.898,133.932L334.001,133.777L334.105,133.622L334.209,133.467L334.313,133.313L334.418,133.159L334.522,133.006L334.627,132.853L334.731,132.7L334.836,132.547L334.941,132.395L335.046,132.242L335.151,132.091L335.257,131.939L335.362,131.788L335.468,131.637L335.573,131.487L335.679,131.336L335.785,131.186L335.891,131.037L335.997,130.888L336.103,130.739L336.21,130.59L336.316,130.442L336.423,130.294L336.529,130.146L336.636,129.999L336.743,129.852L336.85,129.705L336.957,129.559L337.064,129.413L337.171,129.267L337.279,129.122L337.386,128.977L337.494,128.832L337.601,128.688L337.709,128.544L337.817,128.4L337.925,128.257L338.033,128.114L338.141,127.972L338.249,127.829L338.358,127.688L338.466,127.546L338.574,127.405L338.683,127.264L338.791,127.124L338.9,126.984L339.009,126.844L339.118,126.705L339.226,126.566L339.335,126.428L339.444,126.29L339.553,126.152L339.663,126.015L339.772,125.878L339.881,125.741L339.99,125.605L341.339,123.93L341.341,123.93L347.532,128.923ZM341.918,129.547L341.814,129.682L341.709,129.818L341.604,129.954L341.5,130.09L341.395,130.227L341.291,130.364L341.187,130.502L341.082,130.64L340.978,130.778L340.874,130.917L340.77,131.056L340.666,131.195L340.562,131.335L340.459,131.475L340.355,131.615L340.251,131.756L340.148,131.897L340.044,132.038L339.941,132.18L339.837,132.322L339.734,132.465L339.631,132.608L339.528,132.751L339.425,132.894L339.322,133.038L339.219,133.182L339.117,133.326L339.014,133.471L338.912,133.616L338.809,133.762L338.707,133.907L338.605,134.053L338.503,134.2L338.401,134.346L338.299,134.493L338.197,134.64L338.096,134.788L337.994,134.936L337.893,135.084L337.792,135.233L337.69,135.381L337.684,135.391L337.722,135.416L337.726,135.41L337.827,135.261L337.928,135.113L338.029,134.965L338.13,134.818L338.232,134.67L338.333,134.523L338.435,134.376L338.536,134.23L338.638,134.084L338.74,133.938L338.842,133.793L338.945,133.647L339.047,133.502L339.149,133.358L339.252,133.214L339.354,133.07L339.457,132.926L339.56,132.783L339.663,132.64L339.766,132.497L339.869,132.355L339.972,132.213L340.076,132.071L340.179,131.929L340.283,131.788L340.386,131.648L340.49,131.507L340.594,131.367L340.697,131.227L340.801,131.088L340.905,130.949L341.009,130.81L341.114,130.672L341.218,130.534L341.322,130.396L341.427,130.259L341.531,130.122L341.636,129.985L341.74,129.849L341.845,129.713L341.95,129.578L341.986,129.532L341.951,129.504L341.918,129.547Z" style="fill:rgb(17,10,20);"/>
            </g>
            <g transform="matrix(4.16667,0,0,4.16667,-1079.46,0)">
                <path d="M367.862,58.558C361.28,52.487 365.458,43.082 375.638,54.73C385.82,66.38 385.011,66.287 382.856,68.641C380.701,70.997 367.862,58.558 367.862,58.558Z" style="fill:rgb(146,168,60);fill-rule:nonzero;"/>
            </g>
            <g transform="matrix(4.16667,0,0,4.16667,-1079.46,0)">
                <path d="M386.518,76.79C386.518,76.79 324.792,69.131 311.007,100.213C309.777,102.987 308.928,106.069 308.54,109.493C308.54,109.493 316.763,122.988 339.243,113.278C361.721,103.567 372.429,93.958 372.429,93.958C372.429,93.958 359.589,129.094 368.023,140.28C376.375,151.359 384.538,150.962 390.163,131.304C398.271,102.97 389.883,83.1 389.883,83.1C389.883,83.1 384.601,129.279 380.305,135.107C377.962,138.285 374.344,139.191 372.992,130.941C370.989,118.725 384.348,83.469 384.348,83.469L378.072,80.557C378.072,80.557 336.333,110.161 327.46,110.452C323.672,110.576 319.422,109.738 317.797,107.718C315.799,105.235 318.098,100.313 318.26,100.114C318.55,99.752 329.976,81.7 386.518,76.79Z" style="fill:rgb(146,168,60);fill-rule:nonzero;"/>
            </g>
            <g transform="matrix(4.16667,0,0,4.16667,-1079.46,0)">
                <path d="M391.771,74.31C391.771,74.31 391.516,12.111 424.02,2.126C426.92,1.235 430.082,0.758 433.528,0.78C433.528,0.78 445.947,10.551 433.628,31.715C421.311,52.878 410.494,62.365 410.494,62.365C410.494,62.365 446.345,54.425 457.012,63.506C468,72.859 465.652,81.175 445.464,84.419C416.367,89.096 397.637,78.402 397.637,78.402C397.637,78.402 444.118,78.657 450.415,75.086C453.849,73.137 455.178,69.653 447.149,67.328C435.258,63.884 398.661,72.95 398.661,72.95L396.519,66.373C396.519,66.373 430.881,28.455 432.227,19.68C432.801,15.935 432.476,11.615 430.664,9.761C428.434,7.481 423.274,9.179 423.056,9.314C422.665,9.558 403.377,18.754 391.771,74.31Z" style="fill:rgb(146,168,60);fill-rule:nonzero;"/>
            </g>
            <g transform="matrix(4.16667,0,0,4.16667,-1079.46,0)">
                <path d="M410.253,92.121C410.253,92.121 464.308,134.508 491.853,142.525C519.399,150.542 451.753,143.459 408.873,99.045C365.992,54.632 410.253,92.121 410.253,92.121Z" style="fill:rgb(146,168,60);fill-rule:nonzero;"/>
            </g>
        </g>
    </g>
</svg>
