<?xml version="1.0" encoding="UTF-8" standalone="no"?>
<!DOCTYPE svg PUBLIC "-//W3C//DTD SVG 1.1//EN" "http://www.w3.org/Graphics/SVG/1.1/DTD/svg11.dtd">
<svg width="100%" height="100%" viewBox="0 0 2737 2737" version="1.1" xmlns="http://www.w3.org/2000/svg" xmlns:xlink="http://www.w3.org/1999/xlink" xml:space="preserve" xmlns:serif="http://www.serif.com/" style="fill-rule:evenodd;clip-rule:evenodd;stroke-miterlimit:1.41421;">
    <rect id="rect3886" x="0" y="0" width="2736.6" height="2737" style="fill:white;"/>
    <g id="Layer-1" transform="matrix(0.700888,0,0,0.700888,1364.21,2378.62)">
        <path d="M113.28,178.435C101.289,178.435 89.402,175.512 78.801,169.939C78.216,169.503 77.697,169.072 77.147,168.638C76.557,168.173 75.934,167.706 75.385,167.244C74.831,166.777 74.351,166.314 73.838,165.849C73.349,165.406 72.824,164.96 72.374,164.519C71.879,164.036 71.462,163.557 71.014,163.077C70.625,162.661 70.198,162.242 69.844,161.828C69.416,161.327 69.069,160.832 68.692,160.335C68.397,159.947 68.062,159.556 67.798,159.17C67.444,158.652 67.174,158.14 66.876,157.626C66.669,157.268 66.418,156.906 66.238,156.549C65.961,156.002 65.771,155.461 65.559,154.919C65.435,154.603 65.267,154.284 65.166,153.969C64.968,153.359 64.862,152.757 64.748,152.154C64.703,151.914 64.615,151.669 64.583,151.43C64.471,150.591 64.44,149.759 64.492,148.936C65.334,135.606 87.086,123.418 104.564,113.626C108.28,111.543 111.877,109.529 115.171,107.573C118.48,105.609 122.095,103.591 125.826,101.506C145.665,90.427 168.149,77.87 169.324,60.629C169.374,59.893 169.372,59.161 169.345,58.43C169.338,58.221 169.323,58.011 169.309,57.803C169.27,57.225 169.207,56.649 169.12,56.073C169.101,55.95 169.1,55.827 169.079,55.704C180.658,68.971 187.313,86.161 187.313,104.388C187.313,145.217 154.102,178.435 113.28,178.435M39.23,104.388C39.23,63.562 72.448,30.348 113.28,30.348C125.193,30.348 137.01,33.239 147.57,38.756L147.569,38.759C157.58,46.298 162.426,53.486 161.972,60.127C161.069,73.384 139.536,85.41 122.235,95.072C118.442,97.19 114.771,99.241 111.409,101.236C108.165,103.164 104.624,105.147 100.963,107.197C80.934,118.418 58.232,131.137 57.138,148.471C57.095,149.152 57.095,149.831 57.118,150.507C57.126,150.712 57.144,150.917 57.157,151.123C57.188,151.604 57.234,152.085 57.299,152.565C57.315,152.686 57.316,152.807 57.335,152.928C45.834,139.679 39.23,122.551 39.23,104.388M151.665,32.587L151.515,32.518L151.519,32.506C139.832,26.273 126.609,22.978 113.28,22.978C68.385,22.978 31.861,59.499 31.861,104.388C31.861,134.453 48.319,161.922 74.822,176.162L74.887,176.206L75.044,176.289C75.052,176.293 75.059,176.299 75.068,176.303L75.068,176.302L75.095,176.317L75.154,176.348L75.154,176.347C86.801,182.534 99.985,185.804 113.28,185.804C158.165,185.804 194.683,149.281 194.683,104.388C194.683,74.31 178.199,46.798 151.665,32.587" style="fill:rgb(145,167,28);fill-rule:nonzero;"/>
        <path d="M235.693,77.138L235.693,52.359C235.693,51.7 235.993,51.279 236.713,51.279L241.933,51.279C242.593,51.279 242.893,51.639 242.893,52.359L242.893,76.418C242.893,83.077 245.053,86.258 250.992,86.258C256.632,86.258 258.732,83.318 258.732,76.659L258.732,52.359C258.732,51.639 258.972,51.279 259.752,51.279L264.432,51.279C265.092,51.279 265.392,51.639 265.392,52.359L265.392,77.078C265.392,87.158 260.892,91.957 250.693,91.957C240.373,91.957 235.693,87.398 235.693,77.138" style="fill:rgb(145,167,28);fill-rule:nonzero;"/>
        <path d="M273.373,90.218L273.373,52.36C273.373,51.64 273.673,51.28 274.333,51.28L279.613,51.28C280.273,51.28 280.633,51.64 280.633,52.36L280.633,67.42C280.633,68.02 280.933,68.199 281.352,68.199C281.773,68.199 282.073,68.02 282.373,67.599L293.352,52.3C294.012,51.34 294.372,51.28 295.092,51.28L300.432,51.28C300.852,51.28 301.032,51.46 301.032,51.82C301.032,52.12 300.912,52.42 300.312,53.2L288.373,69.219C288.132,69.519 288.072,69.699 288.072,69.94C288.072,70.179 288.132,70.36 288.312,70.719L300.252,89.319C300.732,90.038 300.852,90.279 300.852,90.638C300.852,91.059 300.612,91.298 300.072,91.298L294.192,91.298C293.592,91.298 293.232,91.178 292.932,90.638L282.312,73.419C282.073,73.059 281.833,72.939 281.413,72.939C280.873,72.939 280.633,73.179 280.633,73.719L280.633,90.279C280.633,90.998 280.333,91.298 279.613,91.298L274.393,91.298C273.733,91.298 273.373,90.998 273.373,90.218" style="fill:rgb(145,167,28);fill-rule:nonzero;"/>
        <path d="M316.453,71.919C316.453,58.24 323.352,50.5 335.772,50.5C338.592,50.5 341.412,51.04 343.392,51.88C344.472,52.24 344.772,52.6 344.772,53.62L344.772,57.16C344.772,57.94 344.532,58.24 343.932,58.24C343.092,58.24 340.452,56.08 335.832,56.08C328.513,56.08 323.953,61.419 323.953,71.619C323.953,81.038 328.272,86.378 335.952,86.378C341.112,86.378 343.092,84.038 344.052,84.038C344.592,84.038 344.772,84.398 344.772,84.878L344.772,88.418C344.772,89.559 344.412,89.979 342.852,90.638C340.812,91.538 337.752,91.958 334.692,91.958C322.812,91.958 316.453,84.519 316.453,71.919" style="fill:rgb(145,167,28);fill-rule:nonzero;"/>
        <path d="M367.271,72.639C367.931,72.639 368.051,72.399 368.051,71.859C368.051,68.619 366.791,64.719 361.991,64.719C357.492,64.719 355.452,68.619 355.452,71.859C355.452,72.399 355.572,72.639 356.231,72.639L367.271,72.639ZM348.372,75.879C348.372,65.319 353.892,60.039 362.051,60.039C370.571,60.039 374.711,65.199 374.711,75.759C374.711,76.778 374.471,77.139 373.571,77.139L356.231,77.139C355.452,77.139 355.271,77.438 355.271,78.339C355.271,84.878 359.651,86.679 364.211,86.679C369.131,86.679 371.231,84.878 372.311,84.878C372.911,84.878 373.091,85.299 373.091,85.898L373.091,88.598C373.091,89.318 372.851,89.798 371.951,90.218C370.211,90.938 367.331,91.718 363.731,91.718C354.251,91.718 348.372,87.338 348.372,75.879" style="fill:rgb(145,167,28);fill-rule:nonzero;"/>
        <path d="M380.291,90.218L380.291,61.84C380.291,61.06 380.531,60.82 381.191,60.82L386.17,60.82C386.77,60.82 386.951,61.12 386.951,61.54C386.951,61.84 387.13,62.08 387.551,62.08C388.63,62.08 391.03,60.04 395.71,60.04C402.79,60.04 405.13,64 405.13,71.619L405.13,90.218C405.13,90.939 404.71,91.298 404.05,91.298L399.19,91.298C398.53,91.298 398.17,90.939 398.17,90.218L398.17,71.8C398.17,67 396.73,65.14 392.71,65.14C389.95,65.14 387.19,66.04 387.19,68.559L387.19,90.218C387.19,90.878 386.891,91.298 386.17,91.298L381.371,91.298C380.651,91.298 380.291,90.939 380.291,90.218" style="fill:rgb(145,167,28);fill-rule:nonzero;"/>
        <path d="M414.191,83.379L414.191,66.4C414.191,65.92 414.011,65.679 413.591,65.679L410.231,65.679C409.511,65.679 409.152,65.379 409.152,64.6L409.152,61.839C409.152,61.12 409.511,60.819 410.231,60.819L413.591,60.819C414.011,60.819 414.191,60.64 414.191,60.1L414.191,53.8C414.191,53.08 414.491,52.72 415.212,52.72L420.071,52.72C420.851,52.72 421.151,53.08 421.151,53.8L421.151,60.1C421.151,60.64 421.451,60.819 421.871,60.819L428.59,60.819C429.37,60.819 429.731,61.18 429.731,61.839L429.731,64.6C429.731,65.319 429.37,65.679 428.59,65.679L421.811,65.679C421.451,65.679 421.151,65.859 421.151,66.4L421.151,82.358C421.151,85.118 422.471,86.318 424.99,86.318C427.391,86.318 428.29,85.179 429.01,85.179C429.37,85.179 429.731,85.418 429.731,85.958L429.731,89.318C429.731,90.818 426.55,91.718 423.25,91.718C417.011,91.718 414.191,88.899 414.191,83.379" style="fill:rgb(145,167,28);fill-rule:nonzero;"/>
        <path d="M434.351,90.278L434.351,61.839C434.351,61.179 434.591,60.819 435.251,60.819L440.171,60.819C440.891,60.819 441.071,61.059 441.071,61.719C441.071,62.259 441.131,62.559 441.671,62.559C442.691,62.559 444.911,60.219 448.21,60.219C450.25,60.219 450.611,60.759 450.611,61.719L450.611,65.379C450.611,65.919 450.371,66.279 449.771,66.279C449.051,66.279 448.271,66.099 446.71,66.099C443.651,66.099 441.251,67.539 441.251,70.959L441.251,90.278C441.251,90.938 441.011,91.298 440.411,91.298L435.251,91.298C434.711,91.298 434.351,90.938 434.351,90.278" style="fill:rgb(145,167,28);fill-rule:nonzero;"/>
        <path d="M471.79,72.639C472.449,72.639 472.569,72.399 472.569,71.859C472.569,68.619 471.31,64.719 466.51,64.719C462.01,64.719 459.97,68.619 459.97,71.859C459.97,72.399 460.09,72.639 460.75,72.639L471.79,72.639ZM452.891,75.879C452.891,65.319 458.41,60.039 466.57,60.039C475.09,60.039 479.229,65.199 479.229,75.759C479.229,76.778 478.989,77.139 478.09,77.139L460.75,77.139C459.97,77.139 459.79,77.438 459.79,78.339C459.79,84.878 464.17,86.679 468.729,86.679C473.649,86.679 475.749,84.878 476.829,84.878C477.43,84.878 477.609,85.299 477.609,85.898L477.609,88.598C477.609,89.318 477.369,89.798 476.47,90.218C474.729,90.938 471.85,91.718 468.25,91.718C458.77,91.718 452.891,87.338 452.891,75.879" style="fill:rgb(145,167,28);fill-rule:nonzero;"/>
        <path d="M499.39,90.278L499.39,66.519C499.39,65.979 499.21,65.739 498.731,65.739L495.79,65.739C495.13,65.739 494.771,65.499 494.771,64.779L494.771,61.779C494.771,61.059 495.13,60.819 495.79,60.819L498.731,60.819C499.21,60.819 499.39,60.579 499.39,60.099L499.39,56.92C499.39,51.46 502.33,48.52 507.67,48.52C510.55,48.52 512.59,49.299 512.59,50.5L512.59,52.96C512.59,53.739 512.23,53.92 511.869,53.92C511.27,53.92 510.73,53.44 509.289,53.44C507.25,53.44 506.35,54.46 506.35,57.159L506.35,60.099C506.35,60.579 506.59,60.819 507.07,60.819L511.15,60.819C511.93,60.819 512.11,61.119 512.11,61.779L512.11,64.779C512.11,65.439 511.869,65.739 511.15,65.739L507.07,65.739C506.59,65.739 506.35,65.979 506.35,66.519L506.35,90.278C506.35,90.938 506.05,91.298 505.39,91.298L500.35,91.298C499.75,91.298 499.39,90.938 499.39,90.278" style="fill:rgb(145,167,28);fill-rule:nonzero;"/>
        <path d="M535.33,75.818C535.33,68.379 533.23,64.959 528.551,64.959C523.631,64.959 521.591,68.619 521.591,75.818C521.591,83.379 523.81,86.797 528.49,86.797C533.051,86.797 535.33,83.379 535.33,75.818M514.571,75.818C514.571,66.399 518.951,60.039 528.551,60.039C537.97,60.039 542.41,65.799 542.41,75.818C542.41,85.538 538.09,91.717 528.551,91.717C518.951,91.717 514.571,85.658 514.571,75.818" style="fill:rgb(145,167,28);fill-rule:nonzero;"/>
        <path d="M548.59,90.278L548.59,61.839C548.59,61.179 548.83,60.819 549.49,60.819L554.41,60.819C555.13,60.819 555.31,61.059 555.31,61.719C555.31,62.259 555.37,62.559 555.91,62.559C556.93,62.559 559.15,60.219 562.449,60.219C564.489,60.219 564.85,60.759 564.85,61.719L564.85,65.379C564.85,65.919 564.61,66.279 564.01,66.279C563.289,66.279 562.51,66.099 560.949,66.099C557.89,66.099 555.49,67.539 555.49,70.959L555.49,90.278C555.49,90.938 555.25,91.298 554.651,91.298L549.49,91.298C548.95,91.298 548.59,90.938 548.59,90.278" style="fill:rgb(145,167,28);fill-rule:nonzero;"/>
        <path d="M235.43,151.427L235.43,113.509C235.43,112.729 235.73,112.429 236.45,112.429L255.949,112.429C256.729,112.429 257.029,112.729 257.029,113.448L257.029,116.989C257.029,117.649 256.729,117.948 255.949,117.948L243.35,117.948C242.93,117.948 242.69,118.189 242.69,118.729L242.69,128.208C242.69,128.688 242.93,128.928 243.35,128.928L253.249,128.928C253.97,128.928 254.269,129.227 254.269,129.887L254.269,133.488C254.269,134.148 253.97,134.448 253.249,134.448L243.35,134.448C242.93,134.448 242.69,134.688 242.69,135.168L242.69,146.148C242.69,146.688 242.93,146.927 243.41,146.927L257.149,146.927C257.929,146.927 258.109,147.228 258.109,147.948L258.109,151.488C258.109,152.148 257.929,152.448 257.149,152.448L236.45,152.448C235.67,152.448 235.43,152.148 235.43,151.427" style="fill:rgb(145,167,28);fill-rule:nonzero;"/>
        <path d="M261.71,137.508C261.71,127.667 266.51,121.188 276.409,121.188C279.229,121.188 281.209,121.608 282.889,122.388C283.909,122.808 284.149,123.167 284.149,123.947L284.149,127.128C284.149,127.727 283.909,128.028 283.369,128.028C282.469,128.028 281.029,126.108 277.128,126.108C271.849,126.108 268.85,130.069 268.85,137.207C268.85,144.287 271.969,147.767 276.948,147.767C280.669,147.767 282.409,146.028 283.249,146.028C283.909,146.028 284.149,146.446 284.149,147.228L284.149,149.987C284.149,150.886 283.609,151.247 282.589,151.726C280.909,152.506 278.329,152.867 275.688,152.867C266.568,152.867 261.71,147.287 261.71,137.508" style="fill:rgb(145,167,28);fill-rule:nonzero;"/>
        <path d="M309.108,136.968C309.108,129.529 307.008,126.109 302.328,126.109C297.409,126.109 295.369,129.768 295.369,136.968C295.369,144.528 297.588,147.947 302.269,147.947C306.828,147.947 309.108,144.528 309.108,136.968M288.349,136.968C288.349,127.548 292.729,121.189 302.328,121.189C311.748,121.189 316.188,126.948 316.188,136.968C316.188,146.688 311.868,152.867 302.328,152.867C292.729,152.867 288.349,146.808 288.349,136.968" style="fill:rgb(145,167,28);fill-rule:nonzero;"/>
        <path d="M322.369,151.427L322.369,111.529C322.369,110.809 322.789,110.448 323.449,110.448L328.248,110.448C328.909,110.448 329.268,110.869 329.268,111.589L329.268,151.427C329.268,152.087 328.969,152.448 328.308,152.448L323.389,152.448C322.729,152.448 322.369,152.087 322.369,151.427" style="fill:rgb(145,167,28);fill-rule:nonzero;"/>
        <path d="M356.208,136.968C356.208,129.529 354.107,126.109 349.428,126.109C344.508,126.109 342.469,129.768 342.469,136.968C342.469,144.528 344.688,147.947 349.368,147.947C353.928,147.947 356.208,144.528 356.208,136.968M335.448,136.968C335.448,127.548 339.828,121.189 349.428,121.189C358.847,121.189 363.287,126.948 363.287,136.968C363.287,146.688 358.967,152.867 349.428,152.867C339.828,152.867 335.448,146.808 335.448,136.968" style="fill:rgb(145,167,28);fill-rule:nonzero;"/>
        <path d="M387.468,143.747L387.468,129.348C387.468,127.128 385.308,126.108 382.428,126.108C377.868,126.108 374.689,129.227 374.689,137.147C374.689,143.687 376.908,147.527 382.068,147.527C385.308,147.527 387.468,146.147 387.468,143.747M371.029,164.387C369.469,163.726 369.109,163.307 369.109,162.106L369.109,159.467C369.109,158.627 369.409,158.207 370.069,158.207C371.149,158.207 373.549,160.486 379.608,160.486C381.708,160.486 383.868,160.186 385.368,159.047C386.928,157.847 387.468,155.807 387.468,153.467L387.468,151.367C387.468,150.887 387.408,150.587 386.988,150.587C386.208,150.587 384.768,152.447 380.148,152.447C372.229,152.447 367.609,146.687 367.609,137.147C367.609,126.708 373.009,121.188 380.448,121.188C384.768,121.188 386.448,123.168 387.228,123.168C387.528,123.168 387.648,123.048 387.648,122.628C387.708,122.208 387.828,121.968 388.488,121.968L393.348,121.968C394.008,121.968 394.188,122.328 394.188,122.928L394.188,151.607C394.188,156.047 393.828,159.226 391.788,161.747C389.208,164.866 384.768,165.826 379.848,165.826C376.009,165.826 372.888,165.106 371.029,164.387" style="fill:rgb(145,167,28);fill-rule:nonzero;"/>
        <path d="M402.047,164.387L402.047,161.326C402.047,160.487 402.407,160.187 403.007,160.187C403.247,160.187 403.727,160.247 404.507,160.247C405.707,160.247 406.667,159.887 407.446,158.207C408.526,155.687 408.767,154.787 408.767,154.187C408.767,153.767 408.647,153.227 408.406,152.507L399.047,123.769C398.867,123.168 398.747,122.868 398.747,122.569C398.747,122.208 398.987,121.968 399.527,121.968L404.627,121.968C405.227,121.968 405.587,122.149 405.767,122.809L412.067,144.888C412.187,145.308 412.307,145.428 412.607,145.428C412.847,145.428 412.967,145.247 413.087,144.827L419.086,122.748C419.267,122.088 419.687,121.968 420.286,121.968L424.547,121.968C425.027,121.968 425.266,122.208 425.266,122.569C425.266,122.868 425.207,123.109 425.027,123.828L414.467,157.547C412.607,163.547 409.847,165.826 405.107,165.826C402.647,165.826 402.047,165.407 402.047,164.387" style="fill:rgb(145,167,28);fill-rule:nonzero;"/>
        <path d="M454.848,127.008C457.368,125.628 458.988,123.708 458.988,120.588C458.988,117.828 457.428,116.029 454.787,116.029C451.968,116.029 450.348,117.769 450.348,120.408C450.348,122.569 451.188,124.008 453.588,126.888C453.768,127.128 453.948,127.189 454.188,127.189C454.428,127.189 454.608,127.128 454.848,127.008M460.787,146.507C461.268,146.268 461.388,146.087 461.388,145.848C461.388,145.667 461.327,145.487 461.087,145.247L452.448,134.748C452.268,134.568 452.148,134.447 451.848,134.447C451.668,134.447 451.428,134.508 451.188,134.748C449.268,136.128 447.588,137.808 447.588,141.108C447.588,145.967 451.308,147.768 455.327,147.768C457.548,147.768 459.408,147.348 460.787,146.507M440.748,141.768C440.748,136.907 443.208,133.848 447.648,130.787C448.008,130.548 448.128,130.428 448.128,130.188C448.128,129.948 448.008,129.768 447.828,129.529C445.489,126.948 443.808,124.309 443.808,120.769C443.808,115.669 447.409,111.649 454.968,111.649C460.967,111.649 465.528,114.649 465.528,120.588C465.528,124.968 463.068,128.208 458.388,130.728C458.028,130.908 457.908,131.148 457.908,131.388C457.908,131.568 457.968,131.688 458.148,131.928L465.347,140.747C465.587,140.987 465.768,141.048 465.948,141.048C466.247,141.048 466.368,140.867 466.547,140.508C467.267,138.827 467.627,137.268 467.627,134.628C467.627,134.088 467.868,133.668 468.587,133.668L472.487,133.668C473.327,133.668 473.567,133.908 473.567,134.928C473.567,138.648 472.908,142.548 470.687,145.367C470.507,145.667 470.448,145.787 470.448,145.967C470.448,146.207 470.507,146.327 470.747,146.627L474.167,150.528C474.827,151.307 475.007,151.547 475.007,151.907C475.007,152.267 474.767,152.447 474.287,152.447L468.347,152.447C467.627,152.447 467.387,152.267 466.908,151.727L466.068,150.767C465.887,150.528 465.768,150.467 465.528,150.467C465.347,150.467 465.167,150.528 464.807,150.707C462.228,152.327 458.988,153.167 454.787,153.167C447.409,153.167 440.748,149.807 440.748,141.768" style="fill:rgb(145,167,28);fill-rule:nonzero;"/>
        <path d="M493.007,151.427L493.007,113.509C493.007,112.789 493.307,112.429 494.087,112.429L499.247,112.429C499.906,112.429 500.267,112.789 500.267,113.509L500.267,128.029C500.267,128.628 500.507,128.808 501.047,128.808L515.086,128.808C515.567,128.808 515.806,128.628 515.806,128.088L515.806,113.509C515.806,112.789 516.226,112.429 516.886,112.429L522.106,112.429C522.825,112.429 523.126,112.789 523.126,113.509L523.126,151.427C523.126,152.148 522.825,152.448 522.106,152.448L516.826,152.448C516.166,152.448 515.806,152.148 515.806,151.427L515.806,135.168C515.806,134.568 515.506,134.448 515.086,134.448L500.986,134.448C500.507,134.448 500.267,134.568 500.267,135.168L500.267,151.427C500.267,152.148 499.967,152.448 499.247,152.448L494.027,152.448C493.307,152.448 493.007,152.148 493.007,151.427" style="fill:rgb(145,167,28);fill-rule:nonzero;"/>
        <path d="M531.227,164.387L531.227,161.326C531.227,160.487 531.587,160.187 532.187,160.187C532.427,160.187 532.907,160.247 533.687,160.247C534.887,160.247 535.847,159.887 536.626,158.207C537.706,155.687 537.947,154.787 537.947,154.187C537.947,153.767 537.827,153.227 537.586,152.507L528.227,123.769C528.047,123.168 527.927,122.868 527.927,122.569C527.927,122.208 528.167,121.968 528.707,121.968L533.807,121.968C534.407,121.968 534.767,122.149 534.947,122.809L541.247,144.888C541.367,145.308 541.487,145.428 541.787,145.428C542.027,145.428 542.147,145.247 542.267,144.827L548.266,122.748C548.447,122.088 548.867,121.968 549.466,121.968L553.726,121.968C554.206,121.968 554.446,122.208 554.446,122.569C554.446,122.868 554.386,123.109 554.206,123.828L543.647,157.547C541.787,163.547 539.027,165.826 534.287,165.826C531.827,165.826 531.227,165.407 531.227,164.387" style="fill:rgb(145,167,28);fill-rule:nonzero;"/>
        <path d="M576.227,144.587L576.227,129.408C576.227,127.189 574.126,126.108 571.427,126.108C566.267,126.108 563.567,130.188 563.567,137.388C563.567,143.808 565.788,147.887 571.247,147.887C573.827,147.887 576.227,146.987 576.227,144.587M556.488,137.447C556.488,126.708 561.767,121.189 569.747,121.189C573.647,121.189 575.086,122.568 575.807,122.568C576.166,122.568 576.227,122.269 576.227,121.849L576.227,111.528C576.227,110.809 576.586,110.448 577.307,110.448L582.166,110.448C582.947,110.448 583.186,110.809 583.186,111.528L583.186,151.427C583.186,152.087 583.006,152.447 582.107,152.447L577.426,152.447C576.886,152.447 576.586,152.207 576.586,151.667C576.586,151.367 576.527,151.067 576.107,151.067C575.206,151.067 573.527,152.867 569.087,152.867C561.047,152.867 556.488,147.047 556.488,137.447" style="fill:rgb(145,167,28);fill-rule:nonzero;"/>
        <path d="M591.046,151.427L591.046,122.989C591.046,122.328 591.286,121.968 591.946,121.968L596.866,121.968C597.586,121.968 597.766,122.208 597.766,122.868C597.766,123.408 597.826,123.708 598.366,123.708C599.386,123.708 601.606,121.368 604.905,121.368C606.945,121.368 607.306,121.908 607.306,122.868L607.306,126.529C607.306,127.069 607.066,127.428 606.466,127.428C605.745,127.428 604.966,127.248 603.405,127.248C600.346,127.248 597.946,128.688 597.946,132.108L597.946,151.427C597.946,152.087 597.706,152.448 597.107,152.448L591.946,152.448C591.406,152.448 591.046,152.087 591.046,151.427" style="fill:rgb(145,167,28);fill-rule:nonzero;"/>
        <path d="M630.346,136.968C630.346,129.529 628.246,126.109 623.567,126.109C618.647,126.109 616.607,129.768 616.607,136.968C616.607,144.528 618.826,147.947 623.506,147.947C628.066,147.947 630.346,144.528 630.346,136.968M609.587,136.968C609.587,127.548 613.967,121.189 623.567,121.189C632.986,121.189 637.426,126.948 637.426,136.968C637.426,146.688 633.106,152.867 623.567,152.867C613.967,152.867 609.587,146.808 609.587,136.968" style="fill:rgb(145,167,28);fill-rule:nonzero;"/>
        <path d="M643.606,151.427L643.606,111.529C643.606,110.809 644.026,110.448 644.686,110.448L649.486,110.448C650.146,110.448 650.506,110.869 650.506,111.589L650.506,151.427C650.506,152.087 650.206,152.448 649.546,152.448L644.627,152.448C643.966,152.448 643.606,152.087 643.606,151.427" style="fill:rgb(145,167,28);fill-rule:nonzero;"/>
        <path d="M677.444,136.968C677.444,129.529 675.344,126.109 670.665,126.109C665.745,126.109 663.705,129.768 663.705,136.968C663.705,144.528 665.924,147.947 670.604,147.947C675.165,147.947 677.444,144.528 677.444,136.968M656.685,136.968C656.685,127.548 661.065,121.189 670.665,121.189C680.084,121.189 684.524,126.948 684.524,136.968C684.524,146.688 680.204,152.867 670.665,152.867C661.065,152.867 656.685,146.808 656.685,136.968" style="fill:rgb(145,167,28);fill-rule:nonzero;"/>
        <path d="M708.705,143.747L708.705,129.348C708.705,127.128 706.545,126.108 703.665,126.108C699.105,126.108 695.925,129.227 695.925,137.147C695.925,143.687 698.145,147.527 703.305,147.527C706.545,147.527 708.705,146.147 708.705,143.747M692.266,164.387C690.705,163.726 690.346,163.307 690.346,162.106L690.346,159.467C690.346,158.627 690.645,158.207 691.306,158.207C692.386,158.207 694.785,160.486 700.845,160.486C702.945,160.486 705.104,160.186 706.604,159.047C708.165,157.847 708.705,155.807 708.705,153.467L708.705,151.367C708.705,150.887 708.644,150.587 708.225,150.587C707.444,150.587 706.005,152.447 701.385,152.447C693.465,152.447 688.846,146.687 688.846,137.147C688.846,126.708 694.245,121.188 701.684,121.188C706.005,121.188 707.684,123.168 708.465,123.168C708.765,123.168 708.885,123.048 708.885,122.628C708.944,122.208 709.064,121.968 709.725,121.968L714.584,121.968C715.244,121.968 715.425,122.328 715.425,122.928L715.425,151.607C715.425,156.047 715.064,159.226 713.024,161.747C710.444,164.866 706.005,165.826 701.085,165.826C697.245,165.826 694.125,165.106 692.266,164.387" style="fill:rgb(145,167,28);fill-rule:nonzero;"/>
        <path d="M723.285,164.387L723.285,161.326C723.285,160.487 723.645,160.187 724.245,160.187C724.485,160.187 724.965,160.247 725.745,160.247C726.945,160.247 727.905,159.887 728.684,158.207C729.764,155.687 730.005,154.787 730.005,154.187C730.005,153.767 729.885,153.227 729.644,152.507L720.285,123.769C720.105,123.168 719.985,122.868 719.985,122.569C719.985,122.208 720.225,121.968 720.765,121.968L725.865,121.968C726.465,121.968 726.825,122.149 727.005,122.809L733.305,144.888C733.425,145.308 733.545,145.428 733.845,145.428C734.085,145.428 734.205,145.247 734.325,144.827L740.324,122.748C740.505,122.088 740.925,121.968 741.524,121.968L745.784,121.968C746.264,121.968 746.504,122.208 746.504,122.569C746.504,122.868 746.444,123.109 746.264,123.828L735.705,157.547C733.845,163.547 731.085,165.826 726.345,165.826C723.885,165.826 723.285,165.407 723.285,164.387" style="fill:rgb(145,167,28);fill-rule:nonzero;"/>
    </g>
    <g id="text4128">
    </g>
    <g transform="matrix(0.349716,0,0,0.357163,1582.57,1015.55)">
        <text x="0px" y="0px" style="font-family:'AppleSDGothicNeo-UltraLight', 'Apple SD Gothic Neo';font-weight:200;font-size:586.253px;fill:rgb(145,167,28);">App</text>
    </g>
    <g transform="matrix(1.4121,0,0,1.4121,833.527,624.804)">
        <path d="M34.016,168.772C34.016,178.165 26.401,185.78 17.008,185.78C7.615,185.78 0,178.165 0,168.772C0,159.379 7.615,151.764 17.008,151.764C26.401,151.764 34.016,159.379 34.016,168.772Z" style="fill:rgb(187,210,69);fill-rule:nonzero;"/>
        <path d="M335.364,257.676C327.668,265.226 317.975,269 306.273,269C295.24,269 285.707,265.145 277.683,257.433C269.658,249.722 265.643,240.407 265.643,229.478C265.643,218.558 269.658,209.236 277.683,201.525C285.707,193.813 295.24,189.957 306.273,189.957C317.635,189.957 327.25,193.813 335.116,201.525C342.965,209.236 346.901,218.558 346.901,229.478C346.901,240.73 343.053,250.126 335.364,257.676Z" style="fill:rgb(146,168,60);fill-rule:nonzero;"/>
        <path d="M306.321,251.201C294.393,251.201 284.689,241.496 284.689,229.568C284.689,217.638 294.393,207.933 306.321,207.933C318.249,207.933 327.953,217.638 327.953,229.568C327.953,241.496 318.249,251.201 306.321,251.201Z" style="fill:rgb(146,168,60);fill-rule:nonzero;"/>
        <g transform="matrix(0.19999,0,0,0.19999,51.1725,61.5876)">
            <circle cx="1277.52" cy="839.943" r="113.489" style="fill:rgb(188,211,66);"/>
        </g>
        <path d="M306.321,205.433C293.014,205.433 282.189,216.26 282.189,229.568C282.189,242.875 293.014,253.701 306.321,253.701C319.627,253.701 330.453,242.875 330.453,229.568C330.453,216.26 319.627,205.433 306.321,205.433ZM306.321,210.433C316.89,210.433 325.453,219.001 325.453,229.568C325.453,240.134 316.89,248.701 306.321,248.701C295.751,248.701 287.189,240.134 287.189,229.568C287.189,219.001 295.751,210.433 306.321,210.433Z" style="fill:white;fill-rule:nonzero;"/>
        <path d="M66.54,216.859C72.433,216.859 76.945,215.784 80.08,213.631C83.213,211.48 84.78,207.832 84.78,202.687C84.78,197.73 83.259,194.317 80.22,192.445C77.18,190.573 72.62,189.638 66.54,189.638L66.54,216.859ZM42.688,169.013L69.767,169.013C75.566,169.013 80.852,169.573 85.622,170.696C90.393,171.819 94.484,173.572 97.899,175.958C101.313,178.343 103.955,181.454 105.827,185.288C107.697,189.125 108.634,193.707 108.634,199.038C108.634,204.37 107.182,209.376 104.284,214.052C101.478,218.636 97.735,221.863 93.059,223.734L121.963,267.23L93.199,267.23L66.821,222.611L66.54,222.611L66.54,267.79L42.688,267.79L42.688,169.013Z" style="fill:rgb(146,168,60);fill-rule:nonzero;"/>
        <path d="M165.3,212.228C163.428,210.263 160.25,209.281 155.759,209.281C151.082,209.281 147.06,211.154 143.693,214.894C140.417,218.731 138.782,222.986 138.782,227.661L138.782,230.188L165.3,212.228ZM145.096,243.376C146.405,245.154 148.134,246.487 150.287,247.376C152.438,248.266 154.636,248.708 156.882,248.708C163.99,248.708 171.005,245.857 177.928,240.15L189.293,257.127C184.334,260.683 179.191,263.465 173.859,265.476C168.528,267.486 162.726,268.492 156.46,268.492C150.941,268.679 145.797,267.603 141.027,265.265C136.256,262.928 132.117,259.911 128.608,256.215C125.102,252.521 122.388,248.405 120.472,243.868C118.553,239.331 117.641,234.912 117.735,230.609C117.547,225.37 118.459,220.344 120.472,215.525C122.482,210.708 125.242,206.453 128.75,202.757C132.257,199.063 136.327,196.14 140.957,193.987C145.587,191.837 150.474,190.809 155.619,190.901C163.196,190.901 170.257,192.913 176.806,196.935C183.447,201.052 188.357,206.476 191.539,213.21L145.096,243.376Z" style="fill:rgb(146,168,60);fill-rule:nonzero;"/>
        <path d="M250.871,215.736C248.998,214.146 246.824,212.907 244.347,212.017C241.867,211.13 239.318,210.685 236.699,210.685C231.648,210.685 227.39,212.368 223.931,215.736C220.469,218.917 218.74,223.08 218.74,228.224C218.74,231.124 219.161,233.814 220.002,236.291C220.844,238.771 222.059,240.921 223.65,242.745C225.24,244.57 227.18,246.021 229.474,247.095C231.765,248.171 234.314,248.708 237.121,248.708C242.544,248.708 247.175,246.933 251.011,243.376L262.937,259.092C261.626,260.589 259.896,261.921 257.746,263.091C255.593,264.261 253.302,265.243 250.871,266.036C248.437,266.83 245.982,267.441 243.505,267.861C241.025,268.282 238.755,268.492 236.699,268.492C230.712,268.584 225.264,267.603 220.353,265.546C215.443,263.489 211.233,260.73 207.726,257.267C204.218,253.808 201.503,249.81 199.587,245.271C197.669,240.736 196.757,235.988 196.851,231.029C196.851,225.044 197.833,219.595 199.798,214.683C201.762,209.773 204.52,205.564 208.076,202.056C211.63,198.548 215.839,195.812 220.705,193.847C225.567,191.883 230.898,190.901 236.699,190.901C241.281,190.901 245.82,191.673 250.31,193.216C254.8,194.759 258.775,196.935 262.236,199.74L250.871,215.736Z" style="fill:rgb(146,168,60);fill-rule:nonzero;"/>
        <path d="M355.594,194.269L375.096,194.269L375.096,205.913L375.237,205.913C376.36,202.736 377.624,200.14 379.026,198.126C380.428,196.116 382.065,194.597 383.936,193.567C385.807,192.538 387.936,191.837 390.321,191.462C392.706,191.089 395.442,190.901 398.53,190.901L392.495,212.929C387.069,212.929 383.235,214.101 380.991,216.437C378.745,218.777 377.624,222.659 377.624,228.083L377.624,267.37L355.594,267.37L355.594,194.269Z" style="fill:rgb(146,168,60);fill-rule:nonzero;"/>
        <path d="M422.711,236.501C423.6,238.746 424.817,240.71 426.36,242.395C427.903,244.078 429.704,245.411 431.762,246.394C433.819,247.376 436.063,247.866 438.497,247.866C440.834,247.866 443.034,247.376 445.092,246.394C447.149,245.411 448.95,244.078 450.493,242.395C452.038,240.71 453.252,238.746 454.141,236.501C455.03,234.257 455.475,231.871 455.475,229.346C455.475,226.914 455.03,224.575 454.141,222.33C453.252,220.085 452.038,218.12 450.493,216.437C448.95,214.753 447.149,213.421 445.092,212.439C443.034,211.456 440.834,210.965 438.497,210.965C436.063,210.965 433.819,211.456 431.762,212.439C429.704,213.421 427.903,214.753 426.36,216.437C424.817,218.12 423.6,220.085 422.711,222.33C421.823,224.575 421.379,226.914 421.379,229.346C421.379,231.871 421.823,234.257 422.711,236.501ZM454.633,169.013L475.959,169.013L475.959,267.089L456.036,267.089L456.036,256.847L455.754,256.847C452.293,263.675 445.7,267.089 435.971,267.089C431.012,267.181 426.36,266.247 422.01,264.282C417.661,262.32 413.848,259.653 410.575,256.285C407.299,252.917 404.729,248.989 402.858,244.499C400.987,240.009 400.098,235.286 400.192,230.327C400.098,225.277 400.963,220.414 402.788,215.736C404.612,211.06 407.137,206.92 410.366,203.318C413.592,199.718 417.403,196.864 421.799,194.759C426.196,192.654 430.92,191.651 435.971,191.743C439.43,191.743 442.868,192.374 446.284,193.637C449.698,194.9 452.479,196.654 454.633,198.899L454.633,169.013Z" style="fill:rgb(146,168,60);fill-rule:nonzero;"/>
        <rect x="4.687" y="192.015" width="24.118" height="76.483" style="fill:rgb(146,168,60);"/>
        <path d="M353.147,121.154L350.405,118.241C353.36,115.459 355.21,114.239 355.288,114.189L357.477,117.537L356.382,115.863L357.48,117.534C357.464,117.546 355.812,118.645 353.147,121.154Z" style="fill:rgb(146,168,60);fill-rule:nonzero;"/>
        <g>
            <path d="M353.147,121.154L350.405,118.241C353.36,115.459 355.21,114.239 355.288,114.189L357.477,117.537L356.382,115.863L357.48,117.534C357.464,117.546 355.812,118.645 353.147,121.154Z" style="fill:rgb(146,168,60);"/>
            <path d="M355.723,112.113L357.727,115.178L359.54,117.937L359.534,117.941L359.893,118.491L357.383,120.133L357.097,119.696L356.952,119.812L356.799,119.936L356.639,120.067L356.471,120.206L356.296,120.353L356.114,120.507L355.925,120.668L355.729,120.838L355.526,121.015L355.317,121.2L355.101,121.394L354.879,121.595L354.651,121.804L354.416,122.021L353.08,123.271L348.285,118.177L348.285,118.174L349.518,117.017L349.657,116.887L349.795,116.759L349.931,116.633L350.197,116.39L350.457,116.154L350.711,115.928L350.957,115.711L351.195,115.503L351.427,115.303L351.651,115.112L351.867,114.929L352.076,114.755L352.277,114.589L352.47,114.432L352.655,114.283L352.832,114.142L353.001,114.01L353.161,113.885L353.312,113.768L353.455,113.659L353.589,113.559L353.714,113.465L353.83,113.38L353.937,113.302L354.035,113.232L354.123,113.169L354.204,113.112L354.331,113.025L354.42,112.964L355.716,112.111L355.723,112.113ZM354.85,116.371L354.695,116.494L354.531,116.624L354.359,116.763L354.179,116.91L353.991,117.065L353.795,117.228L353.591,117.4L353.38,117.58L353.162,117.768L352.936,117.965L352.703,118.171L352.538,118.319L353.224,119.047L353.322,118.959L353.544,118.763L353.759,118.575L353.968,118.395L354.169,118.222L354.364,118.057L354.551,117.901L354.731,117.751L354.904,117.61L355.07,117.476L355.228,117.349L355.378,117.23L355.448,117.175L354.898,116.334L354.85,116.371Z" style="fill:rgb(145,168,60);"/>
        </g>
        <path d="M317.509,182.229L313.712,180.97C314.917,177.335 316.21,173.749 317.554,170.312L321.279,171.768C319.961,175.14 318.693,178.66 317.509,182.229Z" style="fill:rgb(146,168,60);fill-rule:nonzero;"/>
        <g>
            <path d="M317.509,182.229L313.712,180.97C314.917,177.335 316.21,173.749 317.554,170.312L321.279,171.768C319.961,175.14 318.693,178.66 317.509,182.229Z" style="fill:rgb(146,168,60);"/>
            <path d="M323.221,170.916L322.554,172.628L322.431,172.943L322.309,173.259L322.067,173.893L321.946,174.211L321.825,174.53L321.705,174.85L321.465,175.492L321.227,176.136L321.108,176.46L320.99,176.783L320.872,177.108L320.755,177.433L320.521,178.085L320.289,178.739L320.059,179.395L319.944,179.724L319.83,180.053L319.716,180.383L319.603,180.713L319.377,181.375L319.266,181.706L319.154,182.037L319.043,182.369L318.459,184.124L311.816,181.922L311.815,181.92L312.402,180.155L312.517,179.812L312.747,179.128L312.863,178.787L312.98,178.445L313.097,178.105L313.214,177.764L313.332,177.424L313.45,177.085L313.688,176.407L313.928,175.731L314.049,175.394L314.291,174.722L314.535,174.052L314.658,173.718L314.904,173.052L315.028,172.72L315.276,172.058L315.401,171.728L315.526,171.399L315.778,170.743L316.03,170.091L316.701,168.37L316.703,168.369L323.221,170.916ZM318.329,172.468L318.206,172.792L318.083,173.118L317.96,173.443L317.716,174.097L317.595,174.425L317.473,174.754L317.352,175.084L317.112,175.744L316.992,176.075L316.873,176.407L316.635,177.073L316.517,177.406L316.4,177.74L316.282,178.075L316.166,178.409L316.049,178.745L315.933,179.081L315.818,179.417L315.703,179.754L315.613,180.02L316.562,180.335L316.65,180.076L316.764,179.742L316.879,179.407L316.995,179.073L317.11,178.739L317.227,178.406L317.343,178.073L317.46,177.74L317.578,177.409L317.696,177.077L317.814,176.746L318.052,176.086L318.171,175.757L318.411,175.101L318.653,174.447L318.774,174.121L318.896,173.796L319.018,173.472L319.141,173.148L319.263,172.825L319.341,172.621L318.41,172.257L318.329,172.468Z" style="fill:rgb(145,168,60);"/>
        </g>
        <path d="M326.621,159.548L322.988,157.872C324.609,154.36 326.324,150.944 328.086,147.72L331.596,149.639C329.877,152.783 328.203,156.117 326.621,159.548Z" style="fill:rgb(146,168,60);fill-rule:nonzero;"/>
        <g>
            <path d="M326.621,159.548L322.988,157.872C324.609,154.36 326.324,150.944 328.086,147.72L331.596,149.639C329.877,152.783 328.203,156.117 326.621,159.548Z" style="fill:rgb(146,168,60);"/>
            <path d="M333.63,149.042L332.753,150.651L332.594,150.944L332.276,151.534L332.118,151.831L331.802,152.427L331.645,152.727L331.488,153.028L331.174,153.632L331.018,153.936L330.863,154.24L330.707,154.546L330.552,154.852L330.398,155.159L330.243,155.467L330.09,155.776L329.936,156.085L329.783,156.396L329.631,156.707L329.479,157.019L329.327,157.332L329.176,157.645L329.025,157.959L328.725,158.589L328.575,158.905L328.427,159.222L328.278,159.54L328.13,159.858L327.354,161.538L320.998,158.606L320.997,158.603L321.78,156.912L321.934,156.58L322.088,156.25L322.243,155.92L322.555,155.262L322.712,154.934L322.869,154.607L323.027,154.28L323.185,153.954L323.344,153.629L323.662,152.981L323.822,152.658L323.983,152.336L324.305,151.694L324.629,151.056L324.791,150.738L324.954,150.422L325.118,150.106L325.281,149.791L325.445,149.477L325.61,149.164L325.774,148.851L325.939,148.54L326.105,148.23L326.271,147.921L326.437,147.613L326.603,147.306L327.487,145.685L327.489,145.684L333.63,149.042ZM328.588,149.95L328.426,150.255L328.264,150.561L328.103,150.868L327.781,151.486L327.621,151.796L327.461,152.107L327.301,152.42L327.142,152.732L326.983,153.046L326.825,153.361L326.509,153.993L326.352,154.31L326.195,154.629L326.039,154.947L325.727,155.587L325.572,155.908L325.264,156.552L325.11,156.876L324.985,157.141L325.893,157.56L326.013,157.305L326.166,156.984L326.472,156.344L326.626,156.025L326.936,155.389L327.091,155.072L327.247,154.756L327.403,154.441L327.56,154.126L327.874,153.5L328.032,153.188L328.19,152.877L328.349,152.567L328.667,151.949L328.987,151.335L329.148,151.03L329.308,150.725L329.47,150.422L329.567,150.239L328.689,149.759L328.588,149.95Z" style="fill:rgb(145,168,60);"/>
        </g>
        <path d="M338.278,138.146L334.932,135.952C337.092,132.658 339.349,129.549 341.639,126.711L344.752,129.222C342.544,131.959 340.366,134.961 338.278,138.146Z" style="fill:rgb(146,168,60);fill-rule:nonzero;"/>
        <g>
            <path d="M338.278,138.146L334.932,135.952C337.092,132.658 339.349,129.549 341.639,126.711L344.752,129.222C342.544,131.959 340.366,134.961 338.278,138.146Z" style="fill:rgb(146,168,60);"/>
            <path d="M346.859,128.995L345.716,130.417L345.512,130.672L345.309,130.929L345.105,131.187L344.902,131.447L344.699,131.708L344.497,131.97L344.294,132.234L344.092,132.499L343.89,132.766L343.688,133.035L343.487,133.304L343.286,133.575L343.085,133.848L342.884,134.122L342.684,134.397L342.484,134.673L342.285,134.951L342.085,135.23L341.887,135.51L341.688,135.792L341.49,136.075L341.292,136.359L341.095,136.644L340.898,136.931L340.702,137.218L340.506,137.507L340.31,137.797L340.115,138.088L339.92,138.381L339.726,138.674L338.708,140.222L332.855,136.384L332.854,136.381L333.883,134.818L334.089,134.507L334.295,134.197L334.502,133.888L334.709,133.581L334.917,133.275L335.125,132.97L335.334,132.666L335.544,132.363L335.964,131.761L336.386,131.165L336.598,130.868L336.81,130.573L337.023,130.279L337.236,129.987L337.449,129.696L337.663,129.406L337.877,129.118L338.092,128.831L338.306,128.545L338.522,128.261L338.737,127.978L338.953,127.697L339.169,127.417L339.386,127.138L339.602,126.861L339.819,126.586L340.036,126.312L340.254,126.04L341.41,124.602L341.413,124.602L346.859,128.995ZM341.751,128.983L341.54,129.254L341.33,129.526L341.12,129.8L340.911,130.075L340.701,130.352L340.492,130.63L340.283,130.91L340.074,131.191L339.866,131.473L339.658,131.756L339.451,132.042L339.243,132.328L339.037,132.616L338.83,132.905L338.624,133.195L338.418,133.487L338.213,133.78L338.008,134.074L337.804,134.369L337.6,134.666L337.397,134.964L337.194,135.263L337.016,135.525L337.854,136.074L338.021,135.826L338.222,135.53L338.423,135.235L338.625,134.941L338.827,134.649L339.03,134.357L339.233,134.067L339.437,133.778L339.641,133.491L339.846,133.204L340.051,132.919L340.256,132.635L340.461,132.353L340.668,132.071L340.874,131.791L341.081,131.513L341.288,131.236L341.495,130.96L341.703,130.685L341.911,130.412L342.119,130.141L342.328,129.87L342.537,129.602L342.651,129.455L341.873,128.827L341.751,128.983Z" style="fill:rgb(145,168,60);"/>
        </g>
        <path d="M367.862,58.558C361.28,52.487 365.458,43.082 375.638,54.73C385.82,66.38 385.011,66.287 382.856,68.641C380.701,70.997 367.862,58.558 367.862,58.558Z" style="fill:rgb(187,210,69);fill-rule:nonzero;"/>
        <path d="M386.518,76.79C386.518,76.79 324.792,69.131 311.007,100.213C309.777,102.987 308.928,106.069 308.54,109.493C308.54,109.493 316.763,122.988 339.243,113.278C361.721,103.567 372.429,93.958 372.429,93.958C372.429,93.958 359.589,129.094 368.023,140.28C376.375,151.359 384.538,150.962 390.163,131.304C398.271,102.97 389.883,83.1 389.883,83.1C389.883,83.1 384.601,129.279 380.305,135.107C377.962,138.285 374.344,139.191 372.992,130.941C370.989,118.725 384.348,83.469 384.348,83.469L378.072,80.557C378.072,80.557 336.333,110.161 327.46,110.452C323.672,110.576 319.422,109.738 317.797,107.718C315.799,105.235 318.098,100.313 318.26,100.114C318.55,99.752 329.976,81.7 386.518,76.79Z" style="fill:rgb(187,210,69);fill-rule:nonzero;"/>
        <path d="M391.771,74.31C391.771,74.31 391.516,12.111 424.02,2.126C426.92,1.235 430.082,0.758 433.528,0.78C433.528,0.78 445.947,10.551 433.628,31.715C421.311,52.878 410.494,62.365 410.494,62.365C410.494,62.365 446.345,54.425 457.012,63.506C468,72.859 465.652,81.175 445.464,84.419C416.367,89.096 397.637,78.402 397.637,78.402C397.637,78.402 444.118,78.657 450.415,75.086C453.849,73.137 455.178,69.653 447.149,67.328C435.258,63.884 398.661,72.95 398.661,72.95L396.519,66.373C396.519,66.373 430.881,28.455 432.227,19.68C432.801,15.935 432.476,11.615 430.664,9.761C428.434,7.481 423.274,9.179 423.056,9.314C422.665,9.558 403.377,18.754 391.771,74.31Z" style="fill:rgb(187,210,69);fill-rule:nonzero;"/>
        <path d="M410.253,92.121C410.253,92.121 464.308,134.508 491.853,142.525C519.399,150.542 451.753,143.459 408.873,99.045C365.992,54.632 410.253,92.121 410.253,92.121Z" style="fill:rgb(187,210,69);fill-rule:nonzero;"/>
        <path d="M266.578,192.058C262.494,188.976 258.222,186.027 253.886,183.293L257.618,177.371C262.122,180.209 266.554,183.271 270.794,186.471L266.578,192.058Z" style="fill:rgb(146,168,60);fill-rule:nonzero;"/>
        <path d="M240.501,175.618C235.983,173.27 231.281,171.062 226.524,169.055L229.246,162.606C234.174,164.685 239.047,166.973 243.729,169.407L240.501,175.618Z" style="fill:rgb(146,168,60);fill-rule:nonzero;"/>
        <path d="M43.442,163.6L41.601,156.846C46.581,155.489 51.772,154.207 57.032,153.036L58.553,159.869C53.4,161.016 48.316,162.271 43.442,163.6Z" style="fill:rgb(146,168,60);fill-rule:nonzero;"/>
        <path d="M212.064,163.599C207.245,161.986 202.252,160.514 197.224,159.223L198.964,152.443C204.153,153.775 209.309,155.295 214.286,156.961L212.064,163.599Z" style="fill:rgb(146,168,60);fill-rule:nonzero;"/>
        <path d="M73.828,156.819L72.607,149.926C77.806,149.005 83.087,148.187 88.301,147.496L89.221,154.436C84.106,155.113 78.928,155.915 73.828,156.819Z" style="fill:rgb(146,168,60);fill-rule:nonzero;"/>
        <path d="M182.098,155.883C177.104,154.953 171.947,154.159 166.77,153.525L167.621,146.577C172.941,147.229 178.244,148.045 183.38,149.002L182.098,155.883Z" style="fill:rgb(146,168,60);fill-rule:nonzero;"/>
        <path d="M104.699,152.735L104.092,145.761C109.4,145.299 114.737,144.96 119.953,144.753L120.23,151.747C115.124,151.949 109.898,152.282 104.699,152.735Z" style="fill:rgb(146,168,60);fill-rule:nonzero;"/>
        <path d="M151.311,152.089C146.223,151.762 140.999,151.569 135.781,151.515L135.854,144.515C141.196,144.571 146.547,144.768 151.759,145.103L151.311,152.089Z" style="fill:rgb(146,168,60);fill-rule:nonzero;"/>
        <g transform="matrix(0.269614,0,0,0.269614,483.147,187.266)">
            <text x="0px" y="0px" style="font-family:'Courier';font-size:112.939px;fill:rgb(146,168,60);">®</text>
        </g>
    </g>
    <g transform="matrix(0.362789,0,0,0.362789,823.42,2366.6)">
        <path d="M976.724,209.118L989.755,209.118C992.525,209.118 994.692,208.832 996.255,208.258C997.817,207.686 999.005,206.769 999.817,205.508C1000.63,204.248 1001.04,202.878 1001.04,201.399C1001.04,199.232 1000.25,197.451 998.677,196.055C997.104,194.66 994.619,193.961 991.224,193.961L976.724,193.961L976.724,209.118ZM970.661,234.711L970.661,188.899L990.974,188.899C995.057,188.899 998.161,189.311 1000.29,190.133C1002.41,190.957 1004.11,192.41 1005.38,194.493C1006.65,196.576 1007.29,198.878 1007.29,201.399C1007.29,204.649 1006.23,207.389 1004.13,209.618C1002.03,211.847 998.775,213.264 994.38,213.868C995.984,214.639 997.203,215.399 998.036,216.149C999.807,217.774 1001.48,219.805 1003.07,222.243L1011.04,234.711L1003.41,234.711L997.349,225.18C995.578,222.43 994.119,220.327 992.974,218.868C991.828,217.41 990.802,216.389 989.896,215.805C988.989,215.222 988.067,214.816 987.13,214.586C986.442,214.441 985.317,214.368 983.755,214.368L976.724,214.368L976.724,234.711L970.661,234.711Z" style="fill:rgb(145,167,28);fill-rule:nonzero;"/>
        <path d="M1019.04,214.93L1037.57,214.93C1037.32,212.139 1036.61,210.045 1035.44,208.649C1033.65,206.482 1031.33,205.399 1028.47,205.399C1025.89,205.399 1023.72,206.264 1021.96,207.993C1020.2,209.722 1019.22,212.035 1019.04,214.93ZM1037.51,224.024L1043.32,224.743C1042.4,228.139 1040.7,230.774 1038.22,232.649C1035.75,234.524 1032.58,235.461 1028.72,235.461C1023.87,235.461 1020.02,233.967 1017.18,230.977C1014.33,227.988 1012.91,223.795 1012.91,218.399C1012.91,212.816 1014.35,208.482 1017.22,205.399C1020.1,202.316 1023.83,200.774 1028.41,200.774C1032.85,200.774 1036.47,202.285 1039.29,205.305C1042.1,208.326 1043.51,212.576 1043.51,218.055C1043.51,218.389 1043.5,218.889 1043.47,219.555L1018.72,219.555C1018.93,223.202 1019.96,225.993 1021.82,227.93C1023.67,229.868 1025.98,230.836 1028.76,230.836C1030.82,230.836 1032.58,230.295 1034.04,229.211C1035.5,228.128 1036.65,226.399 1037.51,224.024Z" style="fill:rgb(145,167,28);fill-rule:nonzero;"/>
        <path d="M1070.76,222.555L1076.29,223.274C1075.68,227.086 1074.14,230.071 1071.65,232.227C1069.16,234.383 1066.1,235.461 1062.48,235.461C1057.93,235.461 1054.28,233.977 1051.52,231.008C1048.76,228.04 1047.38,223.785 1047.38,218.243C1047.38,214.66 1047.98,211.524 1049.16,208.836C1050.35,206.149 1052.16,204.133 1054.59,202.79C1057.01,201.446 1059.65,200.774 1062.51,200.774C1066.11,200.774 1069.06,201.686 1071.35,203.508C1073.64,205.332 1075.11,207.92 1075.76,211.274L1070.29,212.118C1069.77,209.889 1068.85,208.211 1067.52,207.086C1066.2,205.961 1064.6,205.399 1062.73,205.399C1059.89,205.399 1057.59,206.415 1055.82,208.446C1054.05,210.477 1053.16,213.691 1053.16,218.086C1053.16,222.545 1054.02,225.785 1055.73,227.805C1057.43,229.827 1059.66,230.836 1062.41,230.836C1064.62,230.836 1066.47,230.16 1067.95,228.805C1069.42,227.452 1070.36,225.368 1070.76,222.555Z" style="fill:rgb(145,167,28);fill-rule:nonzero;"/>
        <path d="M1083.51,218.118C1083.51,222.368 1084.44,225.55 1086.29,227.665C1088.14,229.78 1090.48,230.836 1093.29,230.836C1096.08,230.836 1098.4,229.774 1100.26,227.649C1102.11,225.524 1103.04,222.285 1103.04,217.93C1103.04,213.826 1102.11,210.717 1100.24,208.602C1098.38,206.488 1096.06,205.43 1093.29,205.43C1090.48,205.43 1088.14,206.482 1086.29,208.586C1084.44,210.691 1083.51,213.868 1083.51,218.118ZM1077.73,218.118C1077.73,211.972 1079.44,207.42 1082.85,204.461C1085.71,202.003 1089.19,200.774 1093.29,200.774C1097.85,200.774 1101.58,202.269 1104.48,205.258C1107.37,208.248 1108.82,212.378 1108.82,217.649C1108.82,221.92 1108.18,225.28 1106.9,227.727C1105.62,230.175 1103.75,232.077 1101.31,233.43C1098.86,234.784 1096.19,235.461 1093.29,235.461C1088.64,235.461 1084.89,233.972 1082.02,230.993C1079.16,228.014 1077.73,223.722 1077.73,218.118Z" style="fill:rgb(145,167,28);fill-rule:nonzero;"/>
        <path d="M1114.07,234.711L1114.07,201.524L1119.13,201.524L1119.13,206.555C1120.43,204.201 1121.62,202.649 1122.71,201.899C1123.81,201.149 1125.01,200.774 1126.32,200.774C1128.22,200.774 1130.14,201.378 1132.1,202.586L1130.17,207.805C1128.79,206.993 1127.42,206.586 1126.04,206.586C1124.81,206.586 1123.71,206.957 1122.73,207.696C1121.75,208.436 1121.05,209.461 1120.63,210.774C1120.01,212.774 1119.7,214.961 1119.7,217.336L1119.7,234.711L1114.07,234.711Z" style="fill:rgb(145,167,28);fill-rule:nonzero;"/>
        <path d="M1137.92,218.149C1137.92,222.399 1138.81,225.577 1140.6,227.68C1142.4,229.785 1144.51,230.836 1146.95,230.836C1149.41,230.836 1151.5,229.832 1153.21,227.821C1154.93,225.811 1155.79,222.743 1155.79,218.618C1155.79,214.076 1154.92,210.743 1153.17,208.618C1151.42,206.493 1149.26,205.43 1146.7,205.43C1144.2,205.43 1142.11,206.451 1140.43,208.493C1138.76,210.535 1137.92,213.753 1137.92,218.149ZM1155.7,234.711L1155.7,230.524C1153.59,233.816 1150.5,235.461 1146.42,235.461C1143.77,235.461 1141.34,234.732 1139.12,233.274C1136.9,231.816 1135.18,229.78 1133.96,227.165C1132.75,224.55 1132.14,221.545 1132.14,218.149C1132.14,214.836 1132.69,211.832 1133.79,209.133C1134.9,206.436 1136.55,204.368 1138.76,202.93C1140.97,201.493 1143.44,200.774 1146.17,200.774C1148.17,200.774 1149.95,201.196 1151.51,202.04C1153.07,202.883 1154.34,203.982 1155.32,205.336L1155.32,188.899L1160.92,188.899L1160.92,234.711L1155.7,234.711Z" style="fill:rgb(145,167,28);fill-rule:nonzero;"/>
        <path d="M1166.23,224.805L1171.79,223.93C1172.11,226.16 1172.98,227.868 1174.4,229.055C1175.83,230.243 1177.83,230.836 1180.39,230.836C1182.97,230.836 1184.89,230.311 1186.14,229.258C1187.39,228.207 1188.01,226.972 1188.01,225.555C1188.01,224.285 1187.46,223.285 1186.36,222.555C1185.59,222.055 1183.67,221.42 1180.61,220.649C1176.48,219.607 1173.62,218.707 1172.03,217.946C1170.43,217.186 1169.23,216.133 1168.4,214.79C1167.58,213.446 1167.17,211.961 1167.17,210.336C1167.17,208.857 1167.51,207.488 1168.18,206.227C1168.86,204.967 1169.78,203.92 1170.95,203.086C1171.83,202.441 1173.02,201.894 1174.53,201.446C1176.04,200.998 1177.66,200.774 1179.39,200.774C1181.99,200.774 1184.28,201.149 1186.25,201.899C1188.22,202.649 1189.67,203.665 1190.61,204.946C1191.54,206.227 1192.19,207.941 1192.54,210.086L1187.04,210.836C1186.79,209.128 1186.07,207.795 1184.87,206.836C1183.67,205.878 1181.98,205.399 1179.79,205.399C1177.21,205.399 1175.37,205.826 1174.26,206.68C1173.16,207.535 1172.61,208.535 1172.61,209.68C1172.61,210.41 1172.84,211.066 1173.29,211.649C1173.75,212.253 1174.47,212.753 1175.45,213.149C1176.01,213.357 1177.67,213.836 1180.42,214.586C1184.4,215.649 1187.17,216.519 1188.75,217.196C1190.32,217.873 1191.55,218.857 1192.45,220.149C1193.35,221.441 1193.79,223.045 1193.79,224.961C1193.79,226.836 1193.25,228.602 1192.15,230.258C1191.06,231.915 1189.48,233.196 1187.42,234.102C1185.36,235.008 1183.02,235.461 1180.42,235.461C1176.11,235.461 1172.82,234.566 1170.56,232.774C1168.3,230.983 1166.86,228.327 1166.23,224.805Z" style="fill:rgb(145,167,28);fill-rule:nonzero;"/>
        <path d="M976.349,155.038L987.755,155.038C989.713,155.038 991.088,154.965 991.88,154.819C993.275,154.569 994.442,154.153 995.38,153.569C996.317,152.986 997.088,152.137 997.692,151.022C998.296,149.908 998.599,148.622 998.599,147.163C998.599,145.455 998.161,143.971 997.286,142.71C996.411,141.45 995.197,140.564 993.646,140.054C992.093,139.543 989.858,139.288 986.942,139.288L976.349,139.288L976.349,155.038ZM976.349,133.882L986.255,133.882C988.942,133.882 990.869,133.705 992.036,133.351C993.577,132.893 994.739,132.132 995.521,131.069C996.302,130.007 996.692,128.674 996.692,127.069C996.692,125.549 996.327,124.21 995.599,123.054C994.869,121.897 993.827,121.106 992.474,120.679C991.119,120.252 988.796,120.038 985.505,120.038L976.349,120.038L976.349,133.882ZM970.286,160.444L970.286,114.632L987.474,114.632C990.974,114.632 993.78,115.096 995.896,116.022C998.01,116.95 999.666,118.377 1000.86,120.304C1002.06,122.231 1002.66,124.247 1002.66,126.351C1002.66,128.309 1002.13,130.153 1001.07,131.882C1000,133.611 998.4,135.007 996.255,136.069C999.025,136.882 1001.16,138.268 1002.65,140.226C1004.13,142.184 1004.88,144.497 1004.88,147.163C1004.88,149.309 1004.43,151.304 1003.52,153.147C1002.61,154.991 1001.49,156.413 1000.16,157.413C998.827,158.413 997.155,159.168 995.146,159.679C993.135,160.189 990.671,160.444 987.755,160.444L970.286,160.444Z" style="fill:rgb(145,167,28);fill-rule:nonzero;"/>
        <path d="M1012.28,160.444L1012.28,127.257L1017.91,127.257L1017.91,160.444L1012.28,160.444ZM1012.28,121.101L1012.28,114.632L1017.91,114.632L1017.91,121.101L1012.28,121.101Z" style="fill:rgb(145,167,28);fill-rule:nonzero;"/>
        <path d="M1029.9,143.851C1029.9,148.101 1030.83,151.283 1032.68,153.397C1034.53,155.512 1036.87,156.569 1039.68,156.569C1042.47,156.569 1044.79,155.507 1046.65,153.382C1048.5,151.257 1049.43,148.018 1049.43,143.663C1049.43,139.559 1048.5,136.45 1046.63,134.335C1044.77,132.221 1042.45,131.163 1039.68,131.163C1036.87,131.163 1034.53,132.215 1032.68,134.319C1030.83,136.424 1029.9,139.601 1029.9,143.851ZM1024.12,143.851C1024.12,137.705 1025.83,133.153 1029.24,130.194C1032.1,127.736 1035.58,126.507 1039.68,126.507C1044.24,126.507 1047.97,128.002 1050.87,130.991C1053.76,133.981 1055.21,138.111 1055.21,143.382C1055.21,147.653 1054.57,151.012 1053.29,153.46C1052.01,155.908 1050.14,157.809 1047.7,159.163C1045.25,160.517 1042.58,161.194 1039.68,161.194C1035.03,161.194 1031.28,159.705 1028.42,156.726C1025.55,153.747 1024.12,149.455 1024.12,143.851Z" style="fill:rgb(145,167,28);fill-rule:nonzero;"/>
        <rect x="1061.42" y="114.632" width="5.63" height="45.812" style="fill:rgb(145,167,28);"/>
        <path d="M1079.2,143.851C1079.2,148.101 1080.13,151.283 1081.98,153.397C1083.83,155.512 1086.17,156.569 1088.98,156.569C1091.77,156.569 1094.09,155.507 1095.95,153.382C1097.8,151.257 1098.73,148.018 1098.73,143.663C1098.73,139.559 1097.8,136.45 1095.93,134.335C1094.07,132.221 1091.75,131.163 1088.98,131.163C1086.17,131.163 1083.83,132.215 1081.98,134.319C1080.13,136.424 1079.2,139.601 1079.2,143.851ZM1073.42,143.851C1073.42,137.705 1075.13,133.153 1078.54,130.194C1081.4,127.736 1084.88,126.507 1088.98,126.507C1093.54,126.507 1097.27,128.002 1100.17,130.991C1103.06,133.981 1104.51,138.111 1104.51,143.382C1104.51,147.653 1103.87,151.012 1102.59,153.46C1101.31,155.908 1099.44,157.809 1097,159.163C1094.55,160.517 1091.88,161.194 1088.98,161.194C1084.33,161.194 1080.58,159.705 1077.71,156.726C1074.85,153.747 1073.42,149.455 1073.42,143.851Z" style="fill:rgb(145,167,28);fill-rule:nonzero;"/>
        <path d="M1114.47,143.257C1114.47,147.611 1115.34,150.788 1117.07,152.788C1118.8,154.788 1120.96,155.788 1123.57,155.788C1126.15,155.788 1128.32,154.793 1130.07,152.804C1131.82,150.814 1132.69,147.694 1132.69,143.444C1132.69,139.382 1131.79,136.319 1129.99,134.257C1128.19,132.194 1126.02,131.163 1123.47,131.163C1120.97,131.163 1118.85,132.179 1117.1,134.21C1115.35,136.241 1114.47,139.257 1114.47,143.257ZM1109.82,163.194L1115.29,164.007C1115.52,165.694 1116.15,166.923 1117.19,167.694C1118.59,168.736 1120.5,169.257 1122.91,169.257C1125.52,169.257 1127.53,168.736 1128.94,167.694C1130.36,166.652 1131.32,165.194 1131.82,163.319C1132.11,162.173 1132.25,159.768 1132.22,156.101C1129.77,158.997 1126.7,160.444 1123.04,160.444C1118.47,160.444 1114.94,158.799 1112.44,155.507C1109.94,152.215 1108.69,148.268 1108.69,143.663C1108.69,140.497 1109.27,137.575 1110.41,134.897C1111.56,132.221 1113.22,130.153 1115.4,128.694C1117.57,127.236 1120.13,126.507 1123.07,126.507C1126.99,126.507 1130.21,128.09 1132.76,131.257L1132.76,127.257L1137.94,127.257L1137.94,155.944C1137.94,161.111 1137.42,164.772 1136.37,166.929C1135.31,169.085 1133.65,170.788 1131.37,172.038C1129.08,173.288 1126.28,173.913 1122.94,173.913C1118.99,173.913 1115.79,173.022 1113.35,171.241C1110.91,169.46 1109.74,166.777 1109.82,163.194Z" style="fill:rgb(145,167,28);fill-rule:nonzero;"/>
        <path d="M1146.22,160.444L1146.22,127.257L1151.84,127.257L1151.84,160.444L1146.22,160.444ZM1146.22,121.101L1146.22,114.632L1151.84,114.632L1151.84,121.101L1146.22,121.101Z" style="fill:rgb(145,167,28);fill-rule:nonzero;"/>
        <path d="M1181.81,148.288L1187.34,149.007C1186.73,152.819 1185.19,155.804 1182.7,157.96C1180.21,160.116 1177.15,161.194 1173.53,161.194C1168.98,161.194 1165.33,159.71 1162.57,156.741C1159.81,153.772 1158.43,149.518 1158.43,143.976C1158.43,140.393 1159.03,137.257 1160.21,134.569C1161.4,131.882 1163.21,129.866 1165.63,128.522C1168.06,127.179 1170.7,126.507 1173.56,126.507C1177.16,126.507 1180.11,127.418 1182.4,129.241C1184.69,131.064 1186.16,133.653 1186.81,137.007L1181.34,137.851C1180.82,135.622 1179.9,133.944 1178.57,132.819C1177.25,131.694 1175.65,131.132 1173.78,131.132C1170.94,131.132 1168.64,132.147 1166.87,134.179C1165.1,136.21 1164.21,139.424 1164.21,143.819C1164.21,148.278 1165.07,151.518 1166.78,153.538C1168.48,155.559 1170.71,156.569 1173.46,156.569C1175.67,156.569 1177.51,155.893 1178.99,154.538C1180.47,153.184 1181.41,151.101 1181.81,148.288Z" style="fill:rgb(145,167,28);fill-rule:nonzero;"/>
        <path d="M1213.08,143.788C1211.04,144.622 1207.98,145.33 1203.89,145.913C1201.58,146.247 1199.95,146.622 1198.99,147.038C1198.03,147.455 1197.29,148.064 1196.77,148.866C1196.25,149.668 1195.99,150.559 1195.99,151.538C1195.99,153.038 1196.56,154.288 1197.69,155.288C1198.83,156.288 1200.49,156.788 1202.68,156.788C1204.84,156.788 1206.77,156.314 1208.46,155.366C1210.14,154.418 1211.38,153.122 1212.18,151.476C1212.78,150.205 1213.08,148.33 1213.08,145.851L1213.08,143.788ZM1213.55,156.351C1211.47,158.122 1209.46,159.372 1207.54,160.101C1205.61,160.83 1203.54,161.194 1201.33,161.194C1197.69,161.194 1194.88,160.304 1192.93,158.522C1190.97,156.741 1189.99,154.465 1189.99,151.694C1189.99,150.069 1190.36,148.585 1191.1,147.241C1191.84,145.897 1192.81,144.819 1194,144.007C1195.2,143.194 1196.55,142.58 1198.05,142.163C1199.16,141.872 1200.82,141.59 1203.05,141.319C1207.59,140.778 1210.94,140.132 1213.08,139.382C1213.1,138.611 1213.11,138.122 1213.11,137.913C1213.11,135.622 1212.58,134.007 1211.52,133.069C1210.08,131.799 1207.95,131.163 1205.11,131.163C1202.47,131.163 1200.51,131.627 1199.25,132.554C1197.99,133.481 1197.06,135.122 1196.46,137.476L1190.96,136.726C1191.46,134.372 1192.28,132.471 1193.43,131.022C1194.57,129.575 1196.23,128.46 1198.39,127.679C1200.56,126.897 1203.07,126.507 1205.93,126.507C1208.76,126.507 1211.06,126.84 1212.83,127.507C1214.6,128.174 1215.91,129.012 1216.74,130.022C1217.57,131.033 1218.16,132.309 1218.49,133.851C1218.68,134.809 1218.77,136.538 1218.77,139.038L1218.77,146.538C1218.77,151.768 1218.89,155.075 1219.13,156.46C1219.37,157.846 1219.84,159.174 1220.55,160.444L1214.68,160.444C1214.09,159.278 1213.72,157.913 1213.55,156.351Z" style="fill:rgb(145,167,28);fill-rule:nonzero;"/>
        <rect x="1227.11" y="114.632" width="5.62" height="45.812" style="fill:rgb(145,167,28);"/>
        <path d="M1003.22,295.879L1009.29,297.411C1008.02,302.39 1005.73,306.187 1002.43,308.801C999.125,311.417 995.088,312.723 990.317,312.723C985.38,312.723 981.364,311.718 978.271,309.708C975.177,307.698 972.822,304.786 971.208,300.973C969.594,297.161 968.786,293.067 968.786,288.692C968.786,283.921 969.697,279.76 971.521,276.208C973.344,272.656 975.938,269.958 979.302,268.114C982.666,266.27 986.369,265.348 990.411,265.348C994.994,265.348 998.849,266.515 1001.97,268.848C1005.1,271.182 1007.28,274.463 1008.5,278.692L1002.54,280.098C1001.47,276.765 999.932,274.338 997.911,272.817C995.891,271.296 993.349,270.536 990.286,270.536C986.766,270.536 983.822,271.379 981.458,273.067C979.094,274.754 977.432,277.02 976.474,279.864C975.516,282.708 975.036,285.64 975.036,288.661C975.036,292.557 975.604,295.958 976.739,298.864C977.875,301.77 979.641,303.942 982.036,305.379C984.432,306.817 987.025,307.536 989.817,307.536C993.213,307.536 996.088,306.557 998.442,304.598C1000.8,302.64 1002.39,299.734 1003.22,295.879Z" style="fill:rgb(145,167,28);fill-rule:nonzero;"/>
        <path d="M1019.71,292.161L1038.24,292.161C1037.99,289.37 1037.28,287.276 1036.12,285.879C1034.32,283.713 1032,282.629 1029.15,282.629C1026.56,282.629 1024.39,283.495 1022.63,285.223C1020.87,286.953 1019.9,289.265 1019.71,292.161ZM1038.18,301.254L1043.99,301.973C1043.07,305.37 1041.38,308.004 1038.9,309.879C1036.42,311.754 1033.25,312.692 1029.4,312.692C1024.54,312.692 1020.69,311.198 1017.85,308.208C1015.01,305.218 1013.58,301.026 1013.58,295.629C1013.58,290.046 1015.02,285.713 1017.9,282.629C1020.77,279.546 1024.5,278.004 1029.08,278.004C1033.52,278.004 1037.15,279.515 1039.96,282.536C1042.77,285.557 1044.18,289.807 1044.18,295.286C1044.18,295.62 1044.17,296.12 1044.15,296.786L1019.4,296.786C1019.61,300.432 1020.64,303.223 1022.49,305.161C1024.35,307.098 1026.66,308.067 1029.43,308.067C1031.49,308.067 1033.25,307.526 1034.71,306.442C1036.17,305.359 1037.32,303.629 1038.18,301.254Z" style="fill:rgb(145,167,28);fill-rule:nonzero;"/>
        <path d="M1050.48,311.942L1050.48,278.754L1055.54,278.754L1055.54,283.473C1057.98,279.828 1061.5,278.004 1066.1,278.004C1068.1,278.004 1069.94,278.364 1071.62,279.083C1073.29,279.801 1074.55,280.745 1075.38,281.911C1076.22,283.078 1076.8,284.463 1077.13,286.067C1077.34,287.109 1077.45,288.932 1077.45,291.536L1077.45,311.942L1071.82,311.942L1071.82,291.754C1071.82,289.463 1071.6,287.75 1071.17,286.614C1070.73,285.479 1069.95,284.573 1068.84,283.895C1067.72,283.218 1066.42,282.879 1064.92,282.879C1062.52,282.879 1060.45,283.64 1058.71,285.161C1056.97,286.682 1056.1,289.567 1056.1,293.817L1056.1,311.942L1050.48,311.942Z" style="fill:rgb(145,167,28);fill-rule:nonzero;"/>
        <path d="M1097.78,306.911L1098.59,311.879C1097.01,312.212 1095.59,312.379 1094.34,312.379C1092.3,312.379 1090.71,312.056 1089.59,311.411C1088.46,310.765 1087.67,309.917 1087.21,308.864C1086.76,307.812 1086.53,305.598 1086.53,302.223L1086.53,283.129L1082.4,283.129L1082.4,278.754L1086.53,278.754L1086.53,270.536L1092.12,267.161L1092.12,278.754L1097.78,278.754L1097.78,283.129L1092.12,283.129L1092.12,302.536C1092.12,304.14 1092.22,305.171 1092.42,305.629C1092.62,306.088 1092.94,306.453 1093.39,306.723C1093.83,306.995 1094.47,307.129 1095.31,307.129C1095.93,307.129 1096.76,307.057 1097.78,306.911Z" style="fill:rgb(145,167,28);fill-rule:nonzero;"/>
        <path d="M1102.64,311.942L1102.64,278.754L1107.7,278.754L1107.7,283.786C1108.99,281.432 1110.19,279.879 1111.28,279.129C1112.37,278.379 1113.58,278.004 1114.89,278.004C1116.78,278.004 1118.71,278.609 1120.67,279.817L1118.73,285.036C1117.36,284.223 1115.98,283.817 1114.61,283.817C1113.38,283.817 1112.27,284.187 1111.29,284.926C1110.32,285.667 1109.62,286.692 1109.2,288.004C1108.58,290.004 1108.26,292.192 1108.26,294.567L1108.26,311.942L1102.64,311.942Z" style="fill:rgb(145,167,28);fill-rule:nonzero;"/>
        <path d="M1127.69,292.161L1146.22,292.161C1145.97,289.37 1145.26,287.276 1144.09,285.879C1142.3,283.713 1139.98,282.629 1137.13,282.629C1134.54,282.629 1132.37,283.495 1130.61,285.223C1128.85,286.953 1127.88,289.265 1127.69,292.161ZM1146.16,301.254L1151.97,301.973C1151.05,305.37 1149.35,308.004 1146.88,309.879C1144.4,311.754 1141.23,312.692 1137.38,312.692C1132.52,312.692 1128.67,311.198 1125.83,308.208C1122.98,305.218 1121.56,301.026 1121.56,295.629C1121.56,290.046 1123,285.713 1125.88,282.629C1128.75,279.546 1132.48,278.004 1137.06,278.004C1141.5,278.004 1145.13,279.515 1147.94,282.536C1150.75,285.557 1152.16,289.807 1152.16,295.286C1152.16,295.62 1152.15,296.12 1152.13,296.786L1127.38,296.786C1127.58,300.432 1128.61,303.223 1130.47,305.161C1132.32,307.098 1134.63,308.067 1137.41,308.067C1139.47,308.067 1141.23,307.526 1142.69,306.442C1144.15,305.359 1145.3,303.629 1146.16,301.254Z" style="fill:rgb(145,167,28);fill-rule:nonzero;"/>
        <path d="M912.134,85.207L912.134,340.653" style="fill:none;stroke:rgb(146,168,60);stroke-width:3.5px;"/>
        <path d="M481.777,211.808L481.777,248.807C481.777,259.771 482.003,269.583 482.46,278.246C482.916,286.909 483.462,292.464 484.1,294.911C484.736,297.358 487.015,299.267 490.932,300.636C494.848,302.008 499.995,302.692 506.373,302.692C519.58,302.692 529.828,298.679 537.116,290.652C544.403,282.627 548.047,271.371 548.047,256.883C548.047,242.592 543.833,231.507 535.408,223.626C526.981,215.749 514.981,211.808 499.404,211.808L481.777,211.808ZM481.777,190.812L481.777,200.649L489.292,200.649C506.052,200.649 518.875,197.125 527.757,190.078C536.638,183.03 541.079,172.95 541.079,159.832C541.079,149.848 537.685,142.336 530.899,137.294C524.112,132.254 513.978,129.732 500.497,129.732C498.038,129.732 495.463,129.806 492.777,129.953C490.089,130.1 487.288,130.32 484.374,130.614C483.462,134.823 482.802,141.577 482.392,150.875C481.982,160.176 481.777,173.486 481.777,190.812ZM469.753,311.942L450.76,311.942C453.309,309.005 455.109,302.251 456.157,291.68C457.204,281.109 457.729,258.499 457.729,223.847L457.729,211.514C457.729,173.732 457.204,149.627 456.157,139.203C455.109,128.778 453.309,122.098 450.76,119.161L474.262,119.161C480.364,119.161 489.041,118.819 500.292,118.133C511.542,117.45 519.763,117.106 524.956,117.106C538.62,117.106 549.209,120.288 556.724,126.649C564.239,133.013 567.997,141.97 567.997,153.518C567.997,164.383 564.329,173.952 556.998,182.222C549.664,190.495 538.846,197.272 524.545,202.558C541.216,204.613 554.104,210.169 563.215,219.222C572.322,228.277 576.878,240.048 576.878,254.534C576.878,272.153 570.706,286.419 558.364,297.333C546.02,308.249 529.554,313.704 508.969,313.704C503.958,313.704 497.103,313.41 488.404,312.823C479.704,312.236 473.487,311.942 469.753,311.942Z" style="fill:rgb(145,167,28);fill-rule:nonzero;"/>
        <path d="M481.777,211.808L481.777,248.807C481.777,259.771 482.003,269.583 482.46,278.246C482.916,286.909 483.462,292.464 484.1,294.911C484.736,297.358 487.015,299.267 490.932,300.636C494.848,302.008 499.995,302.692 506.373,302.692C519.58,302.692 529.828,298.679 537.116,290.652C544.403,282.627 548.047,271.371 548.047,256.883C548.047,242.592 543.833,231.507 535.408,223.626C526.981,215.749 514.981,211.808 499.404,211.808L481.777,211.808ZM481.777,190.812L481.777,200.649L489.292,200.649C506.052,200.649 518.875,197.125 527.757,190.078C536.638,183.03 541.079,172.95 541.079,159.832C541.079,149.848 537.685,142.336 530.899,137.294C524.112,132.254 513.978,129.732 500.497,129.732C498.038,129.732 495.463,129.806 492.777,129.953C490.089,130.1 487.288,130.32 484.374,130.614C483.462,134.823 482.802,141.577 482.392,150.875C481.982,160.176 481.777,173.486 481.777,190.812ZM469.753,311.942L450.76,311.942C453.309,309.005 455.109,302.251 456.157,291.68C457.204,281.109 457.729,258.499 457.729,223.847L457.729,211.514C457.729,173.732 457.204,149.627 456.157,139.203C455.109,128.778 453.309,122.098 450.76,119.161L474.262,119.161C480.364,119.161 489.041,118.819 500.292,118.133C511.542,117.45 519.763,117.106 524.956,117.106C538.62,117.106 549.209,120.288 556.724,126.649C564.239,133.013 567.997,141.97 567.997,153.518C567.997,164.383 564.329,173.952 556.998,182.222C549.664,190.495 538.846,197.272 524.545,202.558C541.216,204.613 554.104,210.169 563.215,219.222C572.322,228.277 576.878,240.048 576.878,254.534C576.878,272.153 570.706,286.419 558.364,297.333C546.02,308.249 529.554,313.704 508.969,313.704C503.958,313.704 497.103,313.41 488.404,312.823C479.704,312.236 473.487,311.942 469.753,311.942Z" style="fill:rgb(145,167,28);stroke:white;stroke-width:0.25px;"/>
        <path d="M634.081,207.256C635.721,207.648 637.497,207.942 639.41,208.137C641.323,208.334 643.462,208.431 645.832,208.431C659.404,208.431 669.833,204.613 677.123,196.978C684.409,189.343 688.054,178.43 688.054,164.236C688.054,152.394 685.274,143.584 679.719,137.808C674.161,132.034 665.689,129.146 654.304,129.146C649.839,129.146 646.355,129.219 643.851,129.366C641.344,129.512 638.953,129.732 636.677,130.026C635.766,134.334 635.106,141.162 634.696,150.508C634.286,159.857 634.081,173.096 634.081,190.224L634.081,207.256ZM611.125,119.161C622.057,119.161 634.263,118.819 647.745,118.133C661.226,117.45 669.287,117.106 671.93,117.106C686.049,117.106 696.751,120.361 704.041,126.87C711.327,133.38 714.972,142.947 714.972,155.574C714.972,167.907 711.372,178.896 704.177,188.536C696.98,198.178 686.414,206.132 672.477,212.395L712.512,272.299C719.161,282.187 725.288,290.432 730.891,297.04C736.492,303.646 741.524,308.616 745.989,311.942L719.481,311.942C715.928,311.942 713.217,311.428 711.351,310.4C709.483,309.373 707.501,307.294 705.407,304.161L657.583,231.922C654.12,226.637 650.888,223.164 647.882,221.498C644.875,219.834 641.003,219.002 636.267,219.002L634.081,219.002L634.081,237.355C634.081,266.819 634.604,285.833 635.652,294.396C636.699,302.962 638.499,308.81 641.05,311.942L603.064,311.942C605.613,309.005 607.413,302.251 608.461,291.68C609.507,281.109 610.032,258.499 610.032,223.847L610.032,211.514C610.032,173.732 609.507,149.627 608.461,139.203C607.413,128.778 605.613,122.098 603.064,119.161L611.125,119.161Z" style="fill:rgb(145,167,28);fill-rule:nonzero;"/>
        <path d="M634.081,207.256C635.721,207.648 637.497,207.942 639.41,208.137C641.323,208.334 643.462,208.431 645.832,208.431C659.404,208.431 669.833,204.613 677.123,196.978C684.409,189.343 688.054,178.43 688.054,164.236C688.054,152.394 685.274,143.584 679.719,137.808C674.161,132.034 665.689,129.146 654.304,129.146C649.839,129.146 646.355,129.219 643.851,129.366C641.344,129.512 638.953,129.732 636.677,130.026C635.766,134.334 635.106,141.162 634.696,150.508C634.286,159.857 634.081,173.096 634.081,190.224L634.081,207.256ZM611.125,119.161C622.057,119.161 634.263,118.819 647.745,118.133C661.226,117.45 669.287,117.106 671.93,117.106C686.049,117.106 696.751,120.361 704.041,126.87C711.327,133.38 714.972,142.947 714.972,155.574C714.972,167.907 711.372,178.896 704.177,188.536C696.98,198.178 686.414,206.132 672.477,212.395L712.512,272.299C719.161,282.187 725.288,290.432 730.891,297.04C736.492,303.646 741.524,308.616 745.989,311.942L719.481,311.942C715.928,311.942 713.217,311.428 711.351,310.4C709.483,309.373 707.501,307.294 705.407,304.161L657.583,231.922C654.12,226.637 650.888,223.164 647.882,221.498C644.875,219.834 641.003,219.002 636.267,219.002L634.081,219.002L634.081,237.355C634.081,266.819 634.604,285.833 635.652,294.396C636.699,302.962 638.499,308.81 641.05,311.942L603.064,311.942C605.613,309.005 607.413,302.251 608.461,291.68C609.507,281.109 610.032,258.499 610.032,223.847L610.032,211.514C610.032,173.732 609.507,149.627 608.461,139.203C607.413,128.778 605.613,122.098 603.064,119.161L611.125,119.161Z" style="fill:rgb(145,167,28);stroke:white;stroke-width:0.25px;"/>
        <path d="M876.672,119.161L875.032,160.419C871.022,149.946 865.42,142.066 858.226,136.78C851.028,131.495 842.283,128.852 831.99,128.852C811.949,128.852 796.212,135.95 784.781,150.141C773.349,164.335 767.633,183.911 767.633,208.871C767.633,234.616 773.896,255.121 786.421,270.39C798.945,285.661 815.684,293.295 836.637,293.295C846.564,293.295 855.834,291.24 864.442,287.128C873.051,283.017 880.498,277.144 886.783,269.509C883.504,283.508 876.146,294.69 864.716,303.059C853.283,311.428 839.551,315.613 823.519,315.613C799.105,315.613 779.064,306.461 763.397,288.157C747.729,269.854 739.896,246.311 739.896,217.534C739.896,185.723 748.32,160.786 765.174,142.727C782.025,124.667 805.299,115.638 834.997,115.638C839.643,115.638 846.588,116.225 855.834,117.399C865.079,118.574 872.026,119.161 876.672,119.161Z" style="fill:rgb(145,167,28);fill-rule:nonzero;"/>
        <path d="M876.672,119.161L875.032,160.419C871.022,149.946 865.42,142.066 858.226,136.78C851.028,131.495 842.283,128.852 831.99,128.852C811.949,128.852 796.212,135.95 784.781,150.141C773.349,164.335 767.633,183.911 767.633,208.871C767.633,234.616 773.896,255.121 786.421,270.39C798.945,285.661 815.684,293.295 836.637,293.295C846.564,293.295 855.834,291.24 864.442,287.128C873.051,283.017 880.498,277.144 886.783,269.509C883.504,283.508 876.146,294.69 864.716,303.059C853.283,311.428 839.551,315.613 823.519,315.613C799.105,315.613 779.064,306.461 763.397,288.157C747.729,269.854 739.896,246.311 739.896,217.534C739.896,185.723 748.32,160.786 765.174,142.727C782.025,124.667 805.299,115.638 834.997,115.638C839.643,115.638 846.588,116.225 855.834,117.399C865.079,118.574 872.026,119.161 876.672,119.161Z" style="fill:rgb(145,167,28);stroke:white;stroke-width:0.25px;"/>
        <path d="M424.23,149.068C424.23,180.378 398.605,205.761 366.996,205.761C335.386,205.761 309.76,180.378 309.76,149.068C309.76,117.758 335.386,92.375 366.996,92.375C398.605,92.375 424.23,117.758 424.23,149.068Z" style="fill:rgb(145,167,28);fill-rule:nonzero;"/>
        <path d="M424.23,149.068C424.23,180.378 398.605,205.761 366.996,205.761C335.386,205.761 309.76,180.378 309.76,149.068C309.76,117.758 335.386,92.375 366.996,92.375C398.605,92.375 424.23,117.758 424.23,149.068Z" style="fill:rgb(145,167,28);stroke:white;stroke-width:3px;"/>
        <path d="M425.357,275.433C425.357,306.742 399.732,332.125 368.123,332.125C336.512,332.125 310.887,306.742 310.887,275.433C310.887,244.123 336.512,218.74 368.123,218.74C399.732,218.74 425.357,244.123 425.357,275.433Z" style="fill:rgb(145,167,28);fill-rule:nonzero;"/>
        <path d="M425.357,275.433C425.357,306.742 399.732,332.125 368.123,332.125C336.512,332.125 310.887,306.742 310.887,275.433C310.887,244.123 336.512,218.74 368.123,218.74C399.732,218.74 425.357,244.123 425.357,275.433Z" style="fill:rgb(145,167,28);stroke:white;stroke-width:3px;"/>
        <path d="M291.951,275.433C291.951,306.742 266.326,332.125 234.717,332.125C203.106,332.125 177.48,306.742 177.48,275.433C177.48,244.123 203.106,218.74 234.717,218.74C266.326,218.74 291.951,244.123 291.951,275.433Z" style="fill:rgb(145,167,28);fill-rule:nonzero;"/>
        <path d="M291.951,275.433C291.951,306.742 266.326,332.125 234.717,332.125C203.106,332.125 177.48,306.742 177.48,275.433C177.48,244.123 203.106,218.74 234.717,218.74C266.326,218.74 291.951,244.123 291.951,275.433Z" style="fill:rgb(145,167,28);stroke:white;stroke-width:3px;"/>
    </g>
    <g transform="matrix(0.720521,0,0,0.720521,1194.91,2545.18)">
        <g transform="matrix(4.16667,0,0,4.16667,-1064.93,-727.954)">
            <path d="M276.767,185.302C276.767,191.153 272.025,195.895 266.174,195.895C260.325,195.895 255.582,191.153 255.582,185.302C255.582,179.452 260.325,174.709 266.174,174.709C272.025,174.709 276.767,179.452 276.767,185.302" style="fill:rgb(146,168,60);fill-rule:nonzero;"/>
        </g>
        <g transform="matrix(4.16667,0,0,4.16667,-1064.93,-727.954)">
            <path d="M332.608,197.173C328.955,199.407 323.355,198.37 322.062,194.705C320.101,189.147 324.892,184.089 330.499,186.247C331.605,186.673 332.226,187.76 333.312,187.833C334.259,186.929 335.244,186.156 334.893,184.309C334.492,182.198 331.191,181.32 328.566,181.137C320.572,180.578 315.568,186.198 316.438,194.001C317.337,202.052 327.07,205.514 335.069,201.05C334.284,199.723 333.761,198.131 332.608,197.173" style="fill:rgb(146,168,60);"/>
        </g>
        <g transform="matrix(4.16667,0,0,4.16667,-1064.93,-727.954)">
            <path d="M351.976,197.173C348.324,199.407 342.724,198.37 341.431,194.705C339.469,189.147 344.261,184.089 349.869,186.247C350.974,186.673 351.595,187.76 352.68,187.833C353.628,186.929 354.614,186.156 354.261,184.309C353.861,182.198 350.56,181.32 347.935,181.137C339.941,180.578 334.937,186.198 335.807,194.001C336.705,202.052 346.439,205.514 354.437,201.05C353.652,199.723 353.13,198.131 351.976,197.173" style="fill:rgb(146,168,60);"/>
        </g>
        <g transform="matrix(4.16667,0,0,4.16667,-1064.93,-727.954)">
            <path d="M308.658,181.884C308.414,185.01 309.182,189.577 308.808,192.815C307.709,191.183 306.417,188.992 305.033,186.984C303.925,185.378 302.397,182.112 300.833,181.374C299.488,180.74 296.816,181.148 296.283,182.224C295.806,183.187 296.109,185.158 296.109,186.814L296.109,202.774L301.258,202.774L301.258,190.783C304.23,194.696 306.629,198.673 309.408,202.774L314.133,202.774L314.133,181.544C312.855,180.823 309.541,180.848 308.658,181.884" style="fill:rgb(146,168,60);"/>
        </g>
        <g transform="matrix(4.16667,0,0,4.16667,-1064.93,-727.954)">
            <path d="M293.15,181.403L291.509,181.403L291.509,181.412L282.744,181.412C282.033,182.6 282.055,185.231 283.068,186.068L287.834,186.068C287.861,189.554 288.58,195.152 287.92,196.839C286.756,199.824 280.334,197.998 279.297,195.41C278.022,196.245 276.732,197.315 275.927,198.606C278.306,202.734 287.408,205.307 291.795,200.036C293.136,198.424 293.224,196.065 293.161,193.566L293.15,181.403Z" style="fill:rgb(146,168,60);"/>
        </g>
        <g transform="matrix(4.16667,0,0,4.16667,-1064.93,-727.954)">
            <path d="M266.451,193.122C265.631,193.122 264.937,193.18 264.703,193.601C264.484,193.419 264.233,193.251 264.013,193.201C263.049,190.656 264.648,188.558 263.119,186.692C262.08,185.423 260.163,185.718 258.859,184.454C258.295,186.955 257.275,190.135 260.127,192.087C261.431,192.98 263.038,192.86 264.643,193.998C264.628,194.053 264.617,194.108 264.617,194.165C264.617,194.741 265.438,195.208 266.451,195.208C267.463,195.208 268.285,194.741 268.285,194.165C268.285,193.589 267.463,193.122 266.451,193.122M275.812,186.912C275.707,187.203 274.738,187.859 274.599,187.834C274.461,187.811 274.426,187.64 274.98,185.261C275.535,182.883 273.596,180.649 272.607,180.237C271.621,179.824 271.103,179.486 270.652,178.83C270.201,178.175 268.661,178.004 267.968,177.907C267.276,177.809 268.383,178.708 269.007,179.996C269.631,181.281 268.158,182.64 268.072,182.811C267.986,182.979 268.955,182.64 269.439,182.495C269.926,182.35 270.305,181.499 270.738,181.16C271.172,180.819 271.606,181.02 272.141,181.815C272.695,182.64 272.505,183.805 272.246,184.412C271.675,185.742 270.878,186.524 270.687,186.644C270.496,186.765 270.461,186.741 270.461,186.597C270.461,186.451 270.753,185.631 270.773,185.383C270.79,185.164 270.063,185.813 269.838,186.11C269.544,186.5 269.405,187.714 269.405,187.714C269.405,187.714 269.111,187.957 268.902,188.126C268.695,188.296 268.279,188.902 267.968,189.146C267.656,189.388 266.791,189.97 266.67,190.237C266.548,190.506 266.929,190.335 267.016,190.456C267.101,190.579 266.6,190.917 266.806,191.136C267.016,191.354 268.562,191.986 270.323,191.622C271.38,191.402 272.071,190.846 272.383,190.601C272.695,190.359 272.626,190.626 273.89,190.117C275.154,189.607 275.587,188.32 275.794,187.519C276.002,186.718 275.915,186.62 275.812,186.912M257.504,180.171C258.347,179.4 258.857,180.578 259.711,180.667C261.031,177.756 265.308,175.237 267.658,175.971C266.804,177.604 263.322,180.274 263.189,182.845C263.931,182.906 264.676,182.968 265.419,183.028C265.877,183.708 266.549,185.213 265.73,186.203C263.254,183.949 258.471,184.39 257.504,180.171" style="fill:white;"/>
        </g>
        <g transform="matrix(4.16667,0,0,4.16667,-1064.93,-727.954)">
            <path d="M258.128,208.893C258.128,209.426 257.843,209.964 256.952,209.964C256.212,209.964 255.794,209.557 255.794,208.821L255.794,208.579L256.323,208.579L256.323,208.745C256.323,209.201 256.446,209.524 256.964,209.524C257.448,209.524 257.599,209.25 257.599,208.816L257.599,205.949L258.128,205.949L258.128,208.893Z" style="fill:rgb(146,168,60);fill-rule:nonzero;"/>
        </g>
        <g transform="matrix(4.16667,0,0,4.16667,-1064.93,-727.954)">
            <path d="M260.301,209.525C260.796,209.525 261.198,209.141 261.198,208.454C261.198,207.762 260.796,207.377 260.301,207.377C259.806,207.377 259.405,207.762 259.405,208.454C259.405,209.141 259.806,209.525 260.301,209.525M260.301,206.965C261.213,206.965 261.698,207.619 261.698,208.454C261.698,209.283 261.213,209.937 260.301,209.937C259.387,209.937 258.903,209.283 258.903,208.454C258.903,207.619 259.387,206.965 260.301,206.965" style="fill:rgb(146,168,60);fill-rule:nonzero;"/>
        </g>
        <g transform="matrix(4.16667,0,0,4.16667,-1064.93,-727.954)">
            <path d="M262.425,207.031L262.898,207.031L262.898,209.871L262.425,209.871L262.425,207.031ZM262.897,206.52L262.424,206.52L262.424,205.949L262.897,205.949L262.897,206.52Z" style="fill:rgb(146,168,60);fill-rule:nonzero;"/>
        </g>
        <g transform="matrix(4.16667,0,0,4.16667,-1064.93,-727.954)">
            <path d="M263.772,207.031L264.217,207.031L264.217,207.481L264.229,207.481C264.43,207.13 264.752,206.965 265.165,206.965C265.922,206.965 266.157,207.393 266.157,208.003L266.157,209.871L265.682,209.871L265.682,207.948C265.682,207.602 265.459,207.377 265.098,207.377C264.524,207.377 264.247,207.756 264.247,208.267L264.247,209.871L263.772,209.871L263.772,207.031Z" style="fill:rgb(146,168,60);fill-rule:nonzero;"/>
        </g>
        <g transform="matrix(4.16667,0,0,4.16667,-1064.93,-727.954)">
            <path d="M267.667,207.031L268.241,207.031L268.241,207.443L267.667,207.443L267.667,209.206C267.667,209.421 267.729,209.459 268.024,209.459L268.241,209.459L268.241,209.871L267.88,209.871C267.39,209.871 267.194,209.772 267.194,209.25L267.194,207.443L266.704,207.443L266.704,207.031L267.194,207.031L267.194,206.179L267.667,206.179L267.667,207.031Z" style="fill:rgb(146,168,60);fill-rule:nonzero;"/>
        </g>
        <g transform="matrix(4.16667,0,0,4.16667,-1064.93,-727.954)">
            <path d="M270.665,205.949L271.227,205.949L273.323,209.129L273.333,209.129L273.333,205.949L273.835,205.949L273.835,209.871L273.255,209.871L271.179,206.724L271.167,206.724L271.167,209.871L270.665,209.871L270.665,205.949Z" style="fill:rgb(146,168,60);fill-rule:nonzero;"/>
        </g>
        <g transform="matrix(4.16667,0,0,4.16667,-1064.93,-727.954)">
            <path d="M276.538,208.404C276.354,208.536 275.999,208.542 275.681,208.596C275.368,208.651 275.102,208.761 275.102,209.107C275.102,209.415 275.368,209.525 275.659,209.525C276.282,209.525 276.538,209.14 276.538,208.882L276.538,208.404ZM277.308,209.86C277.224,209.909 277.118,209.937 276.968,209.937C276.722,209.937 276.567,209.805 276.567,209.497C276.304,209.799 275.954,209.937 275.554,209.937C275.028,209.937 274.6,209.706 274.6,209.14C274.6,208.498 275.085,208.36 275.575,208.267C276.099,208.168 276.544,208.201 276.544,207.849C276.544,207.443 276.204,207.377 275.903,207.377C275.503,207.377 275.208,207.498 275.184,207.915L274.712,207.915C274.739,207.212 275.292,206.965 275.931,206.965C276.45,206.965 277.013,207.08 277.013,207.745L277.013,209.206C277.013,209.426 277.013,209.525 277.163,209.525C277.202,209.525 277.245,209.519 277.308,209.497L277.308,209.86Z" style="fill:rgb(146,168,60);fill-rule:nonzero;"/>
        </g>
        <g transform="matrix(4.16667,0,0,4.16667,-1064.93,-727.954)">
            <path d="M278.544,207.031L279.118,207.031L279.118,207.443L278.544,207.443L278.544,209.206C278.544,209.421 278.606,209.459 278.901,209.459L279.118,209.459L279.118,209.871L278.757,209.871C278.267,209.871 278.071,209.772 278.071,209.25L278.071,207.443L277.581,207.443L277.581,207.031L278.071,207.031L278.071,206.179L278.544,206.179L278.544,207.031Z" style="fill:rgb(146,168,60);fill-rule:nonzero;"/>
        </g>
        <g transform="matrix(4.16667,0,0,4.16667,-1064.93,-727.954)">
            <path d="M282.165,209.871L281.72,209.871L281.72,209.421L281.708,209.421C281.509,209.772 281.185,209.937 280.772,209.937C280.017,209.937 279.782,209.509 279.782,208.899L279.782,207.031L280.255,207.031L280.255,208.953C280.255,209.3 280.478,209.525 280.841,209.525C281.413,209.525 281.692,209.146 281.692,208.635L281.692,207.031L282.165,207.031L282.165,209.871Z" style="fill:rgb(146,168,60);fill-rule:nonzero;"/>
        </g>
        <g transform="matrix(4.16667,0,0,4.16667,-1064.93,-727.954)">
            <path d="M283.003,207.031L283.448,207.031L283.448,207.63L283.46,207.63C283.687,207.174 284.005,206.948 284.517,206.965L284.517,207.459C283.755,207.459 283.476,207.888 283.476,208.607L283.476,209.871L283.003,209.871L283.003,207.031Z" style="fill:rgb(146,168,60);fill-rule:nonzero;"/>
        </g>
        <g transform="matrix(4.16667,0,0,4.16667,-1064.93,-727.954)">
            <path d="M286.913,208.179C286.892,207.734 286.552,207.377 286.083,207.377C285.587,207.377 285.292,207.745 285.259,208.179L286.913,208.179ZM287.37,208.97C287.241,209.596 286.784,209.937 286.14,209.937C285.22,209.937 284.786,209.31 284.757,208.443C284.757,207.591 285.325,206.965 286.11,206.965C287.13,206.965 287.442,207.904 287.415,208.591L285.259,208.591C285.241,209.085 285.526,209.525 286.155,209.525C286.546,209.525 286.817,209.338 286.901,208.97L287.37,208.97Z" style="fill:rgb(146,168,60);fill-rule:nonzero;"/>
        </g>
        <g transform="matrix(4.16667,0,0,4.16667,-1064.93,-727.954)">
            <path d="M292.608,207.13C292.497,206.575 292.046,206.295 291.493,206.295C290.548,206.295 290.145,207.064 290.145,207.883C290.145,208.778 290.548,209.525 291.499,209.525C292.196,209.525 292.596,209.042 292.647,208.394L293.176,208.394C293.075,209.371 292.458,209.965 291.454,209.965C290.217,209.965 289.616,209.064 289.616,207.921C289.616,206.784 290.274,205.856 291.499,205.856C292.329,205.856 293.014,206.295 293.137,207.13L292.608,207.13Z" style="fill:rgb(146,168,60);fill-rule:nonzero;"/>
        </g>
        <g transform="matrix(4.16667,0,0,4.16667,-1064.93,-727.954)">
            <path d="M295.137,209.525C295.633,209.525 296.034,209.141 296.034,208.454C296.034,207.762 295.633,207.377 295.137,207.377C294.641,207.377 294.241,207.762 294.241,208.454C294.241,209.141 294.641,209.525 295.137,209.525M295.137,206.965C296.051,206.965 296.536,207.619 296.536,208.454C296.536,209.283 296.051,209.937 295.137,209.937C294.223,209.937 293.739,209.283 293.739,208.454C293.739,207.619 294.223,206.965 295.137,206.965" style="fill:rgb(146,168,60);fill-rule:nonzero;"/>
        </g>
        <g transform="matrix(4.16667,0,0,4.16667,-1064.93,-727.954)">
            <path d="M297.233,207.031L297.678,207.031L297.678,207.481L297.69,207.481C297.891,207.13 298.214,206.965 298.626,206.965C299.383,206.965 299.618,207.393 299.618,208.003L299.618,209.871L299.143,209.871L299.143,207.948C299.143,207.602 298.92,207.377 298.559,207.377C297.985,207.377 297.708,207.756 297.708,208.267L297.708,209.871L297.233,209.871L297.233,207.031Z" style="fill:rgb(146,168,60);fill-rule:nonzero;"/>
        </g>
        <g transform="matrix(4.16667,0,0,4.16667,-1064.93,-727.954)">
            <path d="M300.761,208.975C300.778,209.393 301.145,209.524 301.534,209.524C301.83,209.524 302.232,209.458 302.232,209.101C302.232,208.739 301.763,208.679 301.289,208.574C300.821,208.47 300.349,208.316 300.349,207.772C300.349,207.201 300.922,206.965 301.422,206.965C302.058,206.965 302.566,207.163 302.604,207.854L302.131,207.854C302.097,207.492 301.775,207.376 301.462,207.376C301.179,207.376 300.85,207.454 300.85,207.739C300.85,208.074 301.35,208.129 301.792,208.234C302.265,208.338 302.732,208.492 302.732,209.041C302.732,209.717 302.092,209.936 301.506,209.936C300.861,209.936 300.316,209.678 300.287,208.975L300.761,208.975Z" style="fill:rgb(146,168,60);fill-rule:nonzero;"/>
        </g>
        <g transform="matrix(4.16667,0,0,4.16667,-1064.93,-727.954)">
            <path d="M305.395,208.179C305.374,207.734 305.034,207.377 304.565,207.377C304.069,207.377 303.774,207.745 303.741,208.179L305.395,208.179ZM305.852,208.97C305.723,209.596 305.266,209.937 304.622,209.937C303.702,209.937 303.268,209.31 303.239,208.443C303.239,207.591 303.807,206.965 304.592,206.965C305.612,206.965 305.924,207.904 305.897,208.591L303.741,208.591C303.723,209.085 304.008,209.525 304.637,209.525C305.028,209.525 305.299,209.338 305.383,208.97L305.852,208.97Z" style="fill:rgb(146,168,60);fill-rule:nonzero;"/>
        </g>
        <g transform="matrix(4.16667,0,0,4.16667,-1064.93,-727.954)">
            <path d="M306.511,207.031L306.955,207.031L306.955,207.63L306.967,207.63C307.196,207.174 307.513,206.948 308.027,206.965L308.027,207.459C307.263,207.459 306.986,207.888 306.986,208.607L306.986,209.871L306.511,209.871L306.511,207.031Z" style="fill:rgb(146,168,60);fill-rule:nonzero;"/>
        </g>
        <g transform="matrix(4.16667,0,0,4.16667,-1064.93,-727.954)">
            <path d="M309.821,209.871L309.313,209.871L308.245,207.031L308.774,207.031L309.581,209.398L309.593,209.398L310.378,207.031L310.874,207.031L309.821,209.871Z" style="fill:rgb(146,168,60);fill-rule:nonzero;"/>
        </g>
        <g transform="matrix(4.16667,0,0,4.16667,-1064.93,-727.954)">
            <path d="M313.231,208.404C313.047,208.536 312.69,208.542 312.374,208.596C312.061,208.651 311.794,208.761 311.794,209.107C311.794,209.415 312.061,209.525 312.35,209.525C312.975,209.525 313.231,209.14 313.231,208.882L313.231,208.404ZM313.999,209.86C313.915,209.909 313.809,209.937 313.659,209.937C313.415,209.937 313.258,209.805 313.258,209.497C312.997,209.799 312.645,209.937 312.245,209.937C311.721,209.937 311.291,209.706 311.291,209.14C311.291,208.498 311.776,208.36 312.266,208.267C312.79,208.168 313.237,208.201 313.237,207.849C313.237,207.443 312.897,207.377 312.596,207.377C312.194,207.377 311.899,207.498 311.877,207.915L311.403,207.915C311.432,207.212 311.983,206.965 312.624,206.965C313.141,206.965 313.704,207.08 313.704,207.745L313.704,209.206C313.704,209.426 313.704,209.525 313.854,209.525C313.893,209.525 313.938,209.519 313.999,209.497L313.999,209.86Z" style="fill:rgb(146,168,60);fill-rule:nonzero;"/>
        </g>
        <g transform="matrix(4.16667,0,0,4.16667,-1064.93,-727.954)">
            <path d="M315.237,207.031L315.809,207.031L315.809,207.443L315.237,207.443L315.237,209.206C315.237,209.421 315.297,209.459 315.592,209.459L315.809,209.459L315.809,209.871L315.448,209.871C314.958,209.871 314.762,209.772 314.762,209.25L314.762,207.443L314.272,207.443L314.272,207.031L314.762,207.031L314.762,206.179L315.237,206.179L315.237,207.031Z" style="fill:rgb(146,168,60);fill-rule:nonzero;"/>
        </g>
        <g transform="matrix(4.16667,0,0,4.16667,-1064.93,-727.954)">
            <path d="M316.503,207.031L316.976,207.031L316.976,209.871L316.503,209.871L316.503,207.031ZM316.975,206.52L316.502,206.52L316.502,205.949L316.975,205.949L316.975,206.52Z" style="fill:rgb(146,168,60);fill-rule:nonzero;"/>
        </g>
        <g transform="matrix(4.16667,0,0,4.16667,-1064.93,-727.954)">
            <path d="M319.092,209.525C319.587,209.525 319.989,209.141 319.989,208.454C319.989,207.762 319.587,207.377 319.092,207.377C318.597,207.377 318.196,207.762 318.196,208.454C318.196,209.141 318.597,209.525 319.092,209.525M319.092,206.965C320.004,206.965 320.489,207.619 320.489,208.454C320.489,209.283 320.004,209.937 319.092,209.937C318.179,209.937 317.694,209.283 317.694,208.454C317.694,207.619 318.179,206.965 319.092,206.965" style="fill:rgb(146,168,60);fill-rule:nonzero;"/>
        </g>
        <g transform="matrix(4.16667,0,0,4.16667,-1064.93,-727.954)">
            <path d="M321.188,207.031L321.633,207.031L321.633,207.481L321.645,207.481C321.844,207.13 322.168,206.965 322.581,206.965C323.336,206.965 323.571,207.393 323.571,208.003L323.571,209.871L323.098,209.871L323.098,207.948C323.098,207.602 322.875,207.377 322.512,207.377C321.94,207.377 321.661,207.756 321.661,208.267L321.661,209.871L321.188,209.871L321.188,207.031Z" style="fill:rgb(146,168,60);fill-rule:nonzero;"/>
        </g>
        <g transform="matrix(4.16667,0,0,4.16667,-1064.93,-727.954)">
            <path d="M328.987,207.13C328.876,206.575 328.425,206.295 327.874,206.295C326.926,206.295 326.526,207.064 326.526,207.883C326.526,208.778 326.926,209.525 327.879,209.525C328.575,209.525 328.975,209.042 329.026,208.394L329.555,208.394C329.456,209.371 328.837,209.965 327.835,209.965C326.598,209.965 325.997,209.064 325.997,207.921C325.997,206.784 326.653,205.856 327.879,205.856C328.71,205.856 329.393,206.295 329.516,207.13L328.987,207.13Z" style="fill:rgb(146,168,60);fill-rule:nonzero;"/>
        </g>
        <g transform="matrix(4.16667,0,0,4.16667,-1064.93,-727.954)">
            <path d="M331.518,209.525C332.014,209.525 332.414,209.141 332.414,208.454C332.414,207.762 332.014,207.377 331.518,207.377C331.022,207.377 330.622,207.762 330.622,208.454C330.622,209.141 331.022,209.525 331.518,209.525M331.518,206.965C332.432,206.965 332.916,207.619 332.916,208.454C332.916,209.283 332.432,209.937 331.518,209.937C330.604,209.937 330.12,209.283 330.12,208.454C330.12,207.619 330.604,206.965 331.518,206.965" style="fill:rgb(146,168,60);fill-rule:nonzero;"/>
        </g>
        <g transform="matrix(4.16667,0,0,4.16667,-1064.93,-727.954)">
            <path d="M333.614,207.031L334.059,207.031L334.059,207.448L334.071,207.448C334.282,207.13 334.606,206.965 335.001,206.965C335.352,206.965 335.675,207.102 335.792,207.448C335.987,207.146 336.327,206.965 336.694,206.965C337.268,206.965 337.653,207.201 337.653,207.789L337.653,209.871L337.179,209.871L337.179,208.009C337.179,207.657 337.085,207.377 336.622,207.377C336.165,207.377 335.87,207.663 335.87,208.102L335.87,209.871L335.397,209.871L335.397,208.009C335.397,207.64 335.28,207.377 334.856,207.377C334.294,207.377 334.089,207.888 334.089,208.102L334.089,209.871L333.614,209.871L333.614,207.031Z" style="fill:rgb(146,168,60);fill-rule:nonzero;"/>
        </g>
        <g transform="matrix(4.16667,0,0,4.16667,-1064.93,-727.954)">
            <path d="M338.507,207.031L338.952,207.031L338.952,207.448L338.964,207.448C339.175,207.13 339.497,206.965 339.894,206.965C340.243,206.965 340.568,207.102 340.685,207.448C340.88,207.146 341.218,206.965 341.587,206.965C342.159,206.965 342.544,207.201 342.544,207.789L342.544,209.871L342.071,209.871L342.071,208.009C342.071,207.657 341.976,207.377 341.515,207.377C341.058,207.377 340.763,207.663 340.763,208.102L340.763,209.871L340.288,209.871L340.288,208.009C340.288,207.64 340.171,207.377 339.749,207.377C339.187,207.377 338.98,207.888 338.98,208.102L338.98,209.871L338.507,209.871L338.507,207.031Z" style="fill:rgb(146,168,60);fill-rule:nonzero;"/>
        </g>
        <g transform="matrix(4.16667,0,0,4.16667,-1064.93,-727.954)">
            <path d="M343.427,207.031L343.9,207.031L343.9,209.871L343.427,209.871L343.427,207.031ZM343.899,206.52L343.426,206.52L343.426,205.949L343.899,205.949L343.899,206.52Z" style="fill:rgb(146,168,60);fill-rule:nonzero;"/>
        </g>
        <g transform="matrix(4.16667,0,0,4.16667,-1064.93,-727.954)">
            <path d="M345.432,207.031L346.004,207.031L346.004,207.443L345.432,207.443L345.432,209.206C345.432,209.421 345.493,209.459 345.787,209.459L346.004,209.459L346.004,209.871L345.643,209.871C345.153,209.871 344.957,209.772 344.957,209.25L344.957,207.443L344.467,207.443L344.467,207.031L344.957,207.031L344.957,206.179L345.432,206.179L345.432,207.031Z" style="fill:rgb(146,168,60);fill-rule:nonzero;"/>
        </g>
        <g transform="matrix(4.16667,0,0,4.16667,-1064.93,-727.954)">
            <path d="M347.327,207.031L347.899,207.031L347.899,207.443L347.327,207.443L347.327,209.206C347.327,209.421 347.388,209.459 347.682,209.459L347.899,209.459L347.899,209.871L347.538,209.871C347.048,209.871 346.852,209.772 346.852,209.25L346.852,207.443L346.362,207.443L346.362,207.031L346.852,207.031L346.852,206.179L347.327,206.179L347.327,207.031Z" style="fill:rgb(146,168,60);fill-rule:nonzero;"/>
        </g>
        <g transform="matrix(4.16667,0,0,4.16667,-1064.93,-727.954)">
            <path d="M350.563,208.179C350.541,207.734 350.202,207.377 349.733,207.377C349.237,207.377 348.942,207.745 348.909,208.179L350.563,208.179ZM351.02,208.97C350.891,209.596 350.434,209.937 349.79,209.937C348.87,209.937 348.436,209.31 348.407,208.443C348.407,207.591 348.975,206.965 349.76,206.965C350.78,206.965 351.092,207.904 351.065,208.591L348.909,208.591C348.891,209.085 349.176,209.525 349.805,209.525C350.196,209.525 350.467,209.338 350.551,208.97L351.02,208.97Z" style="fill:rgb(146,168,60);fill-rule:nonzero;"/>
        </g>
        <g transform="matrix(4.16667,0,0,4.16667,-1064.93,-727.954)">
            <path d="M353.694,208.179C353.673,207.734 353.333,207.377 352.866,207.377C352.37,207.377 352.075,207.745 352.042,208.179L353.694,208.179ZM354.151,208.97C354.024,209.596 353.567,209.937 352.921,209.937C352.003,209.937 351.567,209.31 351.54,208.443C351.54,207.591 352.108,206.965 352.893,206.965C353.913,206.965 354.223,207.904 354.196,208.591L352.042,208.591C352.024,209.085 352.307,209.525 352.938,209.525C353.327,209.525 353.6,209.338 353.684,208.97L354.151,208.97Z" style="fill:rgb(146,168,60);fill-rule:nonzero;"/>
        </g>
    </g>
</svg>
