<?xml version="1.0" encoding="iso-8859-1"?>
<!-- Generator: Adobe Illustrator 19.0.0, SVG Export Plug-In . SVG Version: 6.00 Build 0)  -->
<svg version="1.1" id="Capa_1" xmlns="http://www.w3.org/2000/svg" xmlns:xlink="http://www.w3.org/1999/xlink" x="0px" y="0px"
	 viewBox="0 0 480 480" style="enable-background:new 0 0 480 480;" xml:space="preserve">
<g>
	<g>
		<path d="M432,464V184c0-4.418-3.582-8-8-8h-48c-4.418,0-8,3.582-8,8v280h-40V248c0-4.418-3.582-8-8-8h-48c-4.418,0-8,3.582-8,8
			v216h-40V336c0-4.418-3.582-8-8-8h-48c-4.418,0-8,3.582-8,8v128h-40v-56c0-4.418-3.582-8-8-8H64c-4.418,0-8,3.582-8,8v56H16V0H0
			v472c0,4.418,3.582,8,8,8h472v-16H432z M104,464H72v-48h32V464z M208,464h-32V344h32V464z M312,464h-32V256h32V464z M416,464h-32
			V192h32V464z"/>
	</g>
</g>
<g>
	<g>
		<path d="M417.816,85.404c-14.681-9.84-34.558-5.915-44.398,8.766c-3.535,5.274-5.421,11.481-5.418,17.83
			c0.031,4.995,1.248,9.912,3.552,14.344l-49.64,31.032c-10.111-14.404-29.983-17.884-44.387-7.773
			c-13.523,9.492-17.547,27.747-9.269,42.045L212.968,240c-5.78-5.135-13.237-7.98-20.968-8c-17.673,0-32,14.327-32,32
			c0.03,4.811,1.154,9.552,3.288,13.864l-57.512,31.6c-12.763-8.147-29.437-6.532-40.4,3.912
			c-12.653,12.439-12.827,32.781-0.387,45.434c12.439,12.653,32.781,12.827,45.434,0.387c9.968-9.8,12.456-24.92,6.153-37.397
			l57.312-31.496c14.343,10.135,34.187,6.724,44.322-7.619c6.04-8.547,7.487-19.519,3.87-29.341l57.272-50.144
			c14.935,9.283,34.567,4.701,43.85-10.234c3.164-5.091,4.828-10.972,4.798-16.966c-0.055-1.122-0.167-2.241-0.336-3.352
			l54.52-34.08c14.681,9.839,34.558,5.915,44.398-8.766C436.421,115.122,432.497,95.244,417.816,85.404z M99.315,347.309
			c-0.001,0.001-0.002,0.002-0.003,0.003c-6.329,6.047-16.295,6.047-22.624,0c-6.249-6.247-6.251-16.378-0.003-22.627
			s16.378-6.251,22.627-0.003S105.563,341.059,99.315,347.309z M192,280c-8.837,0-16-7.163-16-16s7.163-16,16-16s16,7.163,16,16
			S200.837,280,192,280z M296,192c-8.837,0-16-7.163-16-16s7.163-16,16-16s16,7.163,16,16S304.837,192,296,192z M400,128
			c-8.837,0-16-7.163-16-16s7.163-16,16-16s16,7.163,16,16S408.837,128,400,128z"/>
	</g>
</g>
<g>
	<g>
		<path d="M304,24v32h-16V32h-16v24h-16V16h-16v40h-16V40h-16v24c0,4.418,3.582,8,8,8h96c4.418,0,8-3.582,8-8V24H304z"/>
	</g>
</g>
<g>
	<g>
		<rect x="64" y="136" width="16" height="16"/>
	</g>
</g>
<g>
	<g>
		<rect x="96" y="136" width="80" height="16"/>
	</g>
</g>
<g>
	<g>
		<rect x="48" y="168" width="128" height="16"/>
	</g>
</g>
<g>
	<g>
		<rect x="208" y="96" width="16" height="16"/>
	</g>
</g>
<g>
	<g>
		<rect x="240" y="96" width="80" height="16"/>
	</g>
</g>
<g>
	<g>
		<rect x="48" y="200" width="80" height="16"/>
	</g>
</g>
<g>
	<g>
		<path d="M168,16H56c-4.418,0-8,3.582-8,8v80c0,4.418,3.582,8,8,8h112c4.418,0,8-3.582,8-8V24C176,19.582,172.418,16,168,16z
			 M160,96H64V32h96V96z"/>
	</g>
</g>
<g>
</g>
<g>
</g>
<g>
</g>
<g>
</g>
<g>
</g>
<g>
</g>
<g>
</g>
<g>
</g>
<g>
</g>
<g>
</g>
<g>
</g>
<g>
</g>
<g>
</g>
<g>
</g>
<g>
</g>
</svg>
