<?xml version="1.0" encoding="UTF-8" standalone="no"?>
<!DOCTYPE svg PUBLIC "-//W3C//DTD SVG 1.1//EN" "http://www.w3.org/Graphics/SVG/1.1/DTD/svg11.dtd">
<svg width="100%" height="100%" viewBox="0 0 1309 591" version="1.1" xmlns="http://www.w3.org/2000/svg" xmlns:xlink="http://www.w3.org/1999/xlink" xml:space="preserve" xmlns:serif="http://www.serif.com/" style="fill-rule:evenodd;clip-rule:evenodd;stroke-miterlimit:1.41421;">
    <g transform="matrix(0.375914,0,0,0.383919,902.898,469.611)">
        <text x="0px" y="0px" style="font-family:'AppleSDGothicNeo-UltraLight', 'Apple SD Gothic Neo';font-weight:200;font-size:586.253px;">App</text>
    </g>
    <g transform="matrix(0.380504,0,0,0.380504,53.9333,42.0475)">
        <g transform="matrix(4.16667,0,0,4.16667,33.3333,0)">
            <path d="M34.016,168.772C34.016,178.165 26.401,185.78 17.008,185.78C7.615,185.78 0,178.165 0,168.772C0,159.379 7.615,151.764 17.008,151.764C26.401,151.764 34.016,159.379 34.016,168.772Z" style="fill:rgb(139,167,61);fill-rule:nonzero;"/>
            <path d="M335.364,257.676C327.668,265.226 317.975,269 306.273,269C295.24,269 285.707,265.145 277.683,257.433C269.658,249.722 265.643,240.407 265.643,229.478C265.643,218.558 269.658,209.236 277.683,201.525C285.707,193.813 295.24,189.957 306.273,189.957C317.635,189.957 327.25,193.813 335.116,201.525C342.965,209.236 346.901,218.558 346.901,229.478C346.901,240.73 343.053,250.126 335.364,257.676Z" style="fill:rgb(17,10,20);fill-rule:nonzero;"/>
            <path d="M306.321,251.201C294.393,251.201 284.689,241.496 284.689,229.568C284.689,217.638 294.393,207.933 306.321,207.933C318.249,207.933 327.953,217.638 327.953,229.568C327.953,241.496 318.249,251.201 306.321,251.201Z" style="fill:rgb(139,167,61);fill-rule:nonzero;"/>
            <path d="M306.321,205.433C293.014,205.433 282.189,216.26 282.189,229.568C282.189,242.875 293.014,253.701 306.321,253.701C319.627,253.701 330.453,242.875 330.453,229.568C330.453,216.26 319.627,205.433 306.321,205.433ZM306.321,210.433C316.89,210.433 325.453,219.001 325.453,229.568C325.453,240.134 316.89,248.701 306.321,248.701C295.751,248.701 287.189,240.134 287.189,229.568C287.189,219.001 295.751,210.433 306.321,210.433Z" style="fill:white;fill-rule:nonzero;"/>
            <path d="M66.54,216.859C72.433,216.859 76.945,215.784 80.08,213.631C83.213,211.48 84.78,207.832 84.78,202.687C84.78,197.73 83.259,194.317 80.22,192.445C77.18,190.573 72.62,189.638 66.54,189.638L66.54,216.859ZM42.688,169.013L69.767,169.013C75.566,169.013 80.852,169.573 85.622,170.696C90.393,171.819 94.484,173.572 97.899,175.958C101.313,178.343 103.955,181.454 105.827,185.288C107.697,189.125 108.634,193.707 108.634,199.038C108.634,204.37 107.182,209.376 104.284,214.052C101.478,218.636 97.735,221.863 93.059,223.734L121.963,267.23L93.199,267.23L66.821,222.611L66.54,222.611L66.54,267.79L42.688,267.79L42.688,169.013Z" style="fill:rgb(17,10,20);fill-rule:nonzero;"/>
            <path d="M165.3,212.228C163.428,210.263 160.25,209.281 155.759,209.281C151.082,209.281 147.06,211.154 143.693,214.894C140.417,218.731 138.782,222.986 138.782,227.661L138.782,230.188L165.3,212.228ZM145.096,243.376C146.405,245.154 148.134,246.487 150.287,247.376C152.438,248.266 154.636,248.708 156.882,248.708C163.99,248.708 171.005,245.857 177.928,240.15L189.293,257.127C184.334,260.683 179.191,263.465 173.859,265.476C168.528,267.486 162.726,268.492 156.46,268.492C150.941,268.679 145.797,267.603 141.027,265.265C136.256,262.928 132.117,259.911 128.608,256.215C125.102,252.521 122.388,248.405 120.472,243.868C118.553,239.331 117.641,234.912 117.735,230.609C117.547,225.37 118.459,220.344 120.472,215.525C122.482,210.708 125.242,206.453 128.75,202.757C132.257,199.063 136.327,196.14 140.957,193.987C145.587,191.837 150.474,190.809 155.619,190.901C163.196,190.901 170.257,192.913 176.806,196.935C183.447,201.052 188.357,206.476 191.539,213.21L145.096,243.376Z" style="fill:rgb(17,10,20);fill-rule:nonzero;"/>
            <path d="M250.871,215.736C248.998,214.146 246.824,212.907 244.347,212.017C241.867,211.13 239.318,210.685 236.699,210.685C231.648,210.685 227.39,212.368 223.931,215.736C220.469,218.917 218.74,223.08 218.74,228.224C218.74,231.124 219.161,233.814 220.002,236.291C220.844,238.771 222.059,240.921 223.65,242.745C225.24,244.57 227.18,246.021 229.474,247.095C231.765,248.171 234.314,248.708 237.121,248.708C242.544,248.708 247.175,246.933 251.011,243.376L262.937,259.092C261.626,260.589 259.896,261.921 257.746,263.091C255.593,264.261 253.302,265.243 250.871,266.036C248.437,266.83 245.982,267.441 243.505,267.861C241.025,268.282 238.755,268.492 236.699,268.492C230.712,268.584 225.264,267.603 220.353,265.546C215.443,263.489 211.233,260.73 207.726,257.267C204.218,253.808 201.503,249.81 199.587,245.271C197.669,240.736 196.757,235.988 196.851,231.029C196.851,225.044 197.833,219.595 199.798,214.683C201.762,209.773 204.52,205.564 208.076,202.056C211.63,198.548 215.839,195.812 220.705,193.847C225.567,191.883 230.898,190.901 236.699,190.901C241.281,190.901 245.82,191.673 250.31,193.216C254.8,194.759 258.775,196.935 262.236,199.74L250.871,215.736Z" style="fill:rgb(17,10,20);fill-rule:nonzero;"/>
            <path d="M355.594,194.269L375.096,194.269L375.096,205.913L375.237,205.913C376.36,202.736 377.624,200.14 379.026,198.126C380.428,196.116 382.065,194.597 383.936,193.567C385.807,192.538 387.936,191.837 390.321,191.462C392.706,191.089 395.442,190.901 398.53,190.901L392.495,212.929C387.069,212.929 383.235,214.101 380.991,216.437C378.745,218.777 377.624,222.659 377.624,228.083L377.624,267.37L355.594,267.37L355.594,194.269Z" style="fill:rgb(17,10,20);fill-rule:nonzero;"/>
            <path d="M422.711,236.501C423.6,238.746 424.817,240.71 426.36,242.395C427.903,244.078 429.704,245.411 431.762,246.394C433.819,247.376 436.063,247.866 438.497,247.866C440.834,247.866 443.034,247.376 445.092,246.394C447.149,245.411 448.95,244.078 450.493,242.395C452.038,240.71 453.252,238.746 454.141,236.501C455.03,234.257 455.475,231.871 455.475,229.346C455.475,226.914 455.03,224.575 454.141,222.33C453.252,220.085 452.038,218.12 450.493,216.437C448.95,214.753 447.149,213.421 445.092,212.439C443.034,211.456 440.834,210.965 438.497,210.965C436.063,210.965 433.819,211.456 431.762,212.439C429.704,213.421 427.903,214.753 426.36,216.437C424.817,218.12 423.6,220.085 422.711,222.33C421.823,224.575 421.379,226.914 421.379,229.346C421.379,231.871 421.823,234.257 422.711,236.501ZM454.633,169.013L475.959,169.013L475.959,267.089L456.036,267.089L456.036,256.847L455.754,256.847C452.293,263.675 445.7,267.089 435.971,267.089C431.012,267.181 426.36,266.247 422.01,264.282C417.661,262.32 413.848,259.653 410.575,256.285C407.299,252.917 404.729,248.989 402.858,244.499C400.987,240.009 400.098,235.286 400.192,230.327C400.098,225.277 400.963,220.414 402.788,215.736C404.612,211.06 407.137,206.92 410.366,203.318C413.592,199.718 417.403,196.864 421.799,194.759C426.196,192.654 430.92,191.651 435.971,191.743C439.43,191.743 442.868,192.374 446.284,193.637C449.698,194.9 452.479,196.654 454.633,198.899L454.633,169.013Z" style="fill:rgb(17,10,20);fill-rule:nonzero;"/>
            <rect x="4.687" y="192.015" width="24.118" height="76.483" style="fill:rgb(17,10,20);fill-rule:nonzero;"/>
            <path d="M353.147,121.154L350.405,118.241C353.36,115.459 355.21,114.239 355.288,114.189L357.477,117.537L356.382,115.863L357.48,117.534C357.464,117.546 355.812,118.645 353.147,121.154Z" style="fill:rgb(17,10,20);fill-rule:nonzero;"/>
            <path d="M353.147,121.154L350.405,118.241C353.36,115.459 355.21,114.239 355.288,114.189L357.477,117.537L356.382,115.863L357.48,117.534C357.464,117.546 355.812,118.645 353.147,121.154Z" style="fill:none;stroke:rgb(17,10,20);stroke-width:3px;"/>
            <path d="M317.509,182.229L313.712,180.97C314.917,177.335 316.21,173.749 317.554,170.312L321.279,171.768C319.961,175.14 318.693,178.66 317.509,182.229Z" style="fill:rgb(17,10,20);fill-rule:nonzero;"/>
            <path d="M317.509,182.229L313.712,180.97C314.917,177.335 316.21,173.749 317.554,170.312L321.279,171.768C319.961,175.14 318.693,178.66 317.509,182.229Z" style="fill:none;stroke:rgb(17,10,20);stroke-width:3px;"/>
            <path d="M326.621,159.548L322.988,157.872C324.609,154.36 326.324,150.944 328.086,147.72L331.596,149.639C329.877,152.783 328.203,156.117 326.621,159.548Z" style="fill:rgb(17,10,20);fill-rule:nonzero;"/>
            <path d="M326.621,159.548L322.988,157.872C324.609,154.36 326.324,150.944 328.086,147.72L331.596,149.639C329.877,152.783 328.203,156.117 326.621,159.548Z" style="fill:none;stroke:rgb(17,10,20);stroke-width:3px;"/>
            <path d="M338.278,138.146L334.932,135.952C337.092,132.658 339.349,129.549 341.639,126.711L344.752,129.222C342.544,131.959 340.366,134.961 338.278,138.146Z" style="fill:rgb(17,10,20);fill-rule:nonzero;"/>
            <path d="M338.278,138.146L334.932,135.952C337.092,132.658 339.349,129.549 341.639,126.711L344.752,129.222C342.544,131.959 340.366,134.961 338.278,138.146Z" style="fill:none;stroke:rgb(17,10,20);stroke-width:3px;"/>
            <path d="M367.862,58.558C361.28,52.487 365.458,43.082 375.638,54.73C385.82,66.38 385.011,66.287 382.856,68.641C380.701,70.997 367.862,58.558 367.862,58.558Z" style="fill:rgb(139,167,61);fill-rule:nonzero;"/>
            <path d="M386.518,76.79C386.518,76.79 324.792,69.131 311.007,100.213C309.777,102.987 308.928,106.069 308.54,109.493C308.54,109.493 316.763,122.988 339.243,113.278C361.721,103.567 372.429,93.958 372.429,93.958C372.429,93.958 359.589,129.094 368.023,140.28C376.375,151.359 384.538,150.962 390.163,131.304C398.271,102.97 389.883,83.1 389.883,83.1C389.883,83.1 384.601,129.279 380.305,135.107C377.962,138.285 374.344,139.191 372.992,130.941C370.989,118.725 384.348,83.469 384.348,83.469L378.072,80.557C378.072,80.557 336.333,110.161 327.46,110.452C323.672,110.576 319.422,109.738 317.797,107.718C315.799,105.235 318.098,100.313 318.26,100.114C318.55,99.752 329.976,81.7 386.518,76.79Z" style="fill:rgb(139,167,61);fill-rule:nonzero;"/>
            <path d="M391.771,74.31C391.771,74.31 391.516,12.111 424.02,2.126C426.92,1.235 430.082,0.758 433.528,0.78C433.528,0.78 445.947,10.551 433.628,31.715C421.311,52.878 410.494,62.365 410.494,62.365C410.494,62.365 446.345,54.425 457.012,63.506C468,72.859 465.652,81.175 445.464,84.419C416.367,89.096 397.637,78.402 397.637,78.402C397.637,78.402 444.118,78.657 450.415,75.086C453.849,73.137 455.178,69.653 447.149,67.328C435.258,63.884 398.661,72.95 398.661,72.95L396.519,66.373C396.519,66.373 430.881,28.455 432.227,19.68C432.801,15.935 432.476,11.615 430.664,9.761C428.434,7.481 423.274,9.179 423.056,9.314C422.665,9.558 403.377,18.754 391.771,74.31Z" style="fill:rgb(139,167,61);fill-rule:nonzero;"/>
            <path d="M410.253,92.121C410.253,92.121 464.308,134.508 491.853,142.525C519.399,150.542 451.753,143.459 408.873,99.045C365.992,54.632 410.253,92.121 410.253,92.121Z" style="fill:rgb(139,167,61);fill-rule:nonzero;"/>
            <path d="M266.578,192.058C262.494,188.976 258.222,186.027 253.886,183.293L257.618,177.371C262.122,180.209 266.554,183.271 270.794,186.471L266.578,192.058Z" style="fill:rgb(17,10,20);fill-rule:nonzero;"/>
            <path d="M240.501,175.618C235.983,173.27 231.281,171.062 226.524,169.055L229.246,162.606C234.174,164.685 239.047,166.973 243.729,169.407L240.501,175.618Z" style="fill:rgb(17,10,20);fill-rule:nonzero;"/>
            <path d="M43.442,163.6L41.601,156.846C46.581,155.489 51.772,154.207 57.032,153.036L58.553,159.869C53.4,161.016 48.316,162.271 43.442,163.6Z" style="fill:rgb(17,10,20);fill-rule:nonzero;"/>
            <path d="M212.064,163.599C207.245,161.986 202.252,160.514 197.224,159.223L198.964,152.443C204.153,153.775 209.309,155.295 214.286,156.961L212.064,163.599Z" style="fill:rgb(17,10,20);fill-rule:nonzero;"/>
            <path d="M73.828,156.819L72.607,149.926C77.806,149.005 83.087,148.187 88.301,147.496L89.221,154.436C84.106,155.113 78.928,155.915 73.828,156.819Z" style="fill:rgb(17,10,20);fill-rule:nonzero;"/>
            <path d="M182.098,155.883C177.104,154.953 171.947,154.159 166.77,153.525L167.621,146.577C172.941,147.229 178.244,148.045 183.38,149.002L182.098,155.883Z" style="fill:rgb(17,10,20);fill-rule:nonzero;"/>
            <path d="M104.699,152.735L104.092,145.761C109.4,145.299 114.737,144.96 119.953,144.753L120.23,151.747C115.124,151.949 109.898,152.282 104.699,152.735Z" style="fill:rgb(17,10,20);fill-rule:nonzero;"/>
            <path d="M151.311,152.089C146.223,151.762 140.999,151.569 135.781,151.515L135.854,144.515C141.196,144.571 146.547,144.768 151.759,145.103L151.311,152.089Z" style="fill:rgb(17,10,20);fill-rule:nonzero;"/>
            <g transform="matrix(0.269614,0,0,0.269614,286.168,66.0542)">
                <text x="734.082px" y="449.574px" style="font-family:'Courier';font-size:112.939px;">®</text>
            </g>
        </g>
    </g>
</svg>
